<?xml version="1.0" encoding="utf-8"?>
<!-- Generator: Adobe Illustrator 13.0.0, SVG Export Plug-In . SVG Version: 6.00 Build 14948)  -->
<!DOCTYPE svg PUBLIC "-//W3C//DTD SVG 1.1//EN" "http://www.w3.org/Graphics/SVG/1.1/DTD/svg11.dtd">
<svg fill="#fff" version="1.1" id="Layer_1" xmlns="http://www.w3.org/2000/svg" xmlns:xlink="http://www.w3.org/1999/xlink" x="0px" y="0px"
	 width="612px" height="792px" viewBox="0 0 612 792" enable-background="new 0 0 612 792" xml:space="preserve">
<g>
	<g>
		<path d="M545.063,279.17H448.06c35.133-40.402,58.887-74.521,67.302-91.351l4.646-9.295l-37.686-15.08l83.969-41.989l13.56,88.185
			l-19.488-14.621l-11.466,15.3l57.002,42.754l-24.7-160.449l-145.512,72.761l57.509,22.998
			C449.532,261.336,241.166,508.67,19.125,508.67v19.125c16.036,0,31.977-1.319,47.813-3.643v80.143H19.125v19.125h47.813h114.75
			h66.938h114.75h66.938h114.75h47.813v-19.125h-47.813V279.17z M162.563,604.295h-76.5v-76.5h76.5V604.295z M248.625,604.295
			h-66.938V508.67h-49.85c40.631-13.358,79.866-32.934,116.787-55.959V604.295z M344.25,604.295h-76.5v-153h76.5V604.295z
			 M430.313,604.295h-66.938V432.17h-83.644c58.857-41.09,110.485-89.524,150.581-133.205V604.295z M525.938,604.295h-76.5v-306
			h76.5V604.295z"/>
		<rect x="19.125" y="642.545" width="573.75" height="19.125"/>
		<polygon points="143.438,441.732 28.688,441.732 28.688,212.233 392.063,212.233 392.063,193.108 9.563,193.108 9.563,460.857 
			143.438,460.857 		"/>
		<path d="M104.222,250.483h249.591v-19.125H86.063v9.563c0,15.816-12.871,28.688-28.688,28.688h-9.563v114.75h9.563
			c15.816,0,28.688,12.871,28.688,28.687v9.563h95.625v-19.125h-77.466c-3.806-18.704-18.58-33.478-37.284-37.293v-78.422
			C85.642,283.961,100.416,269.187,104.222,250.483z"/>
	</g>
</g>
</svg>