<?xml version="1.0" encoding="utf-8"?>
<!-- Generator: Adobe Illustrator 13.0.0, SVG Export Plug-In . SVG Version: 6.00 Build 14948)  -->
<!DOCTYPE svg PUBLIC "-//W3C//DTD SVG 1.1//EN" "http://www.w3.org/Graphics/SVG/1.1/DTD/svg11.dtd">
<svg version="1.1" id="Layer_1" xmlns="http://www.w3.org/2000/svg" xmlns:xlink="http://www.w3.org/1999/xlink" x="0px" y="0px"
	 width="612px" height="792px" viewBox="0 0 612 792" enable-background="new 0 0 612 792" xml:space="preserve">
<g>
	<path d="M306.026,111.531c-148.862,0-269.981,121.125-269.981,270.007c0,148.856,121.119,269.943,269.981,269.943
		c148.843,0,269.93-121.087,269.93-269.943C575.955,232.656,454.888,111.531,306.026,111.531z M320.165,513.156v7.854
		c0,8.963-7.3,16.275-16.288,16.275c-8.982,0-16.263-7.306-16.263-16.275v-7.682c-35.726-2.978-61.934-16.55-75.219-38.053
		c-9.741-15.791,2.143-36.185,20.706-36.185h2.397c9.052,0,17.199,5.215,21.388,13.247c5.399,10.334,16.364,17.729,30.721,20.381
		v-69.424l-14.203-3.334c-42.693-9.913-65.541-34.527-65.541-71.394c0-42.107,29.42-69.641,79.744-75.129v-11.392
		c0-9.001,7.28-16.263,16.263-16.263c8.989,0,16.288,7.274,16.288,16.263v11.392c31.69,3.551,55.846,17.27,68.723,37.766
		c9.895,15.702-2.136,36.121-20.693,36.121c-9.097,0-17.378-5.145-21.452-13.298c-4.787-9.626-14.4-16.836-26.577-19.399v66.064
		l15.944,3.137c45.37,9.913,68.027,33.468,68.027,71.904C404.137,479.924,373.874,507.616,320.165,513.156z"/>
	<path d="M320.165,409.474v63.896c21.362-2.257,33.851-14.019,33.851-31.964C354.016,424.939,343.217,414.669,320.165,409.474z"/>
	<path d="M259.08,324.157c0,14.433,9.881,24.601,28.541,29.695V294.36C270.746,296.993,259.08,308.697,259.08,324.157z"/>
</g>
</svg>
