<?xml version="1.0" encoding="utf-8"?>
<!-- Generator: Adobe Illustrator 13.0.0, SVG Export Plug-In . SVG Version: 6.00 Build 14948)  -->
<!DOCTYPE svg PUBLIC "-//W3C//DTD SVG 1.1//EN" "http://www.w3.org/Graphics/SVG/1.1/DTD/svg11.dtd">
<svg version="1.1" id="Layer_1" xmlns="http://www.w3.org/2000/svg" xmlns:xlink="http://www.w3.org/1999/xlink" x="0px" y="0px"
	 width="342.957px" height="342.957px" viewBox="0 0 342.957 342.957" enable-background="new 0 0 342.957 342.957"
	 xml:space="preserve">
<path d="M288.924,232.799c-0.069,0.155-0.153,0.312-0.25,0.465c-0.099,0.152-0.215,0.3-0.34,0.444
	c-0.129,0.146-0.269,0.282-0.425,0.417l-106.418,92.311c-1.159,1.005-2.545,1.762-4.066,2.268c-1.526,0.511-3.175,0.766-4.854,0.766
	c-1.679,0.004-3.371-0.249-4.988-0.754c-1.616-0.504-3.146-1.256-4.485-2.261L-2.423,202.962c-0.18-0.129-0.336-0.265-0.477-0.406
	c-0.136-0.142-0.257-0.285-0.367-0.438c-0.097-0.149-0.191-0.3-0.257-0.459c-0.07-0.151-0.121-0.31-0.157-0.472
	c0.278,1.262,0.563,2.522,0.835,3.788c0.039,0.164,0.089,0.321,0.16,0.479c0.07,0.156,0.155,0.308,0.257,0.458
	c0.105,0.151,0.23,0.297,0.366,0.438c0.136,0.145,0.297,0.281,0.473,0.41l164.431,124.002c1.332,1.003,2.846,1.755,4.446,2.264
	c1.602,0.504,3.288,0.753,4.951,0.753c1.663-0.004,3.299-0.257,4.81-0.764c1.507-0.512,2.885-1.266,4.032-2.274l105.79-92.632
	c0.151-0.139,0.296-0.278,0.42-0.423c0.126-0.144,0.242-0.292,0.34-0.445c0.094-0.15,0.18-0.308,0.249-0.468
	c0.071-0.158,0.126-0.32,0.173-0.483c0.172-0.659,0.344-1.319,0.519-1.98c0.102-0.398,0.211-0.792,0.313-1.195
	c0.03-0.117,0.075-0.276,0.103-0.397c0.034-0.119,0.076-0.277,0.104-0.402C289.052,232.479,288.998,232.639,288.924,232.799z"/>
<path d="M346.587,35.928c-0.332-0.894-0.801-1.694-1.386-2.381c-0.587-0.684-1.292-1.253-2.096-1.671
	c-0.563-0.293-1.125-0.582-1.688-0.875c0.056,0.032,0.106,0.066,0.165,0.092c-0.676-0.374-1.413-0.644-2.222-0.78L156.917-0.773
	c-0.645-0.106-1.309-0.015-1.953,0.247c-0.643,0.261-1.269,0.69-1.842,1.257c-0.574,0.562-1.097,1.26-1.538,2.06
	c-0.437,0.796-0.788,1.702-1.025,2.67l-33.457,137.332c-0.172,0.711-0.266,1.425-0.297,2.127c-0.781-0.125-1.592-0.199-2.42-0.199
	c-0.958-0.003-1.922,0.082-2.838,0.241c-0.915,0.167-1.784,0.413-2.549,0.746L0.394,192.954c-1.097,0.476-2.022,1.033-2.735,1.628
	c-0.727,0.597-1.242,1.233-1.547,1.875c-0.306,0.64-0.386,1.287-0.227,1.896c0.161,0.613,0.57,1.189,1.234,1.695l165.919,124.659
	c1.347,1.016,2.881,1.776,4.497,2.283c1.624,0.513,3.33,0.766,5.009,0.766c1.684-0.004,3.339-0.262,4.867-0.773
	c1.527-0.514,2.917-1.277,4.081-2.294l106.647-93.205c0.477-0.415,0.804-0.876,1.015-1.358c0.052-0.013,0.103-0.021,0.152-0.032
	c-0.021,0.009-0.04,0.016-0.059,0.021c0.664-0.156,1.329-0.317,1.99-0.473c0.62-0.148,1.221-0.394,1.788-0.728
	c0.566-0.323,1.089-0.736,1.57-1.232c0.475-0.499,0.896-1.071,1.261-1.717c0.357-0.649,0.654-1.366,0.874-2.144l50.026-181.843
	c0.297-1.081,0.418-2.151,0.388-3.17C347.112,37.789,346.914,36.809,346.587,35.928z M239.653,226.964
	c-0.043,0.017-0.087,0.032-0.132,0.045c-0.118,0.045-0.247,0.08-0.384,0.103c-0.05,0.009-0.093,0.02-0.141,0.027
	c-0.184,0.026-0.371,0.046-0.565,0.044c-0.016,0-0.036,0-0.052,0c-0.179-0.004-0.359-0.02-0.544-0.047
	c-0.109-0.016-0.226-0.036-0.333-0.061c-0.018-0.005-0.036-0.005-0.051-0.007c-0.144-0.034-0.283-0.077-0.419-0.121
	c-0.03-0.012-0.066-0.027-0.097-0.037c-0.138-0.053-0.273-0.108-0.406-0.177l-6.271-3.198c-0.284-0.146-0.518-0.312-0.694-0.492
	c-0.172-0.181-0.288-0.371-0.347-0.562c-0.059-0.189-0.055-0.38,0.013-0.56c0.067-0.175,0.198-0.343,0.394-0.486l4.231-3.097
	c0.195-0.142,0.434-0.246,0.707-0.316c0.27-0.074,0.569-0.106,0.882-0.106c0.313,0,0.633,0.037,0.947,0.103
	c0.317,0.065,0.626,0.175,0.911,0.315l6.237,3.095c0.289,0.147,0.527,0.308,0.706,0.488c0.183,0.181,0.307,0.372,0.376,0.564
	c0.065,0.188,0.071,0.377,0.014,0.557c-0.063,0.182-0.184,0.352-0.374,0.497l-4.195,3.197
	C239.946,226.827,239.806,226.9,239.653,226.964z M120.327,197.408c-0.103-0.152-0.153-0.312-0.145-0.472
	c0.007-0.159,0.069-0.32,0.188-0.473c0.117-0.148,0.288-0.288,0.518-0.409l4.881-2.629c0.225-0.116,0.48-0.209,0.749-0.265
	c0.27-0.063,0.563-0.088,0.847-0.088c0.285,0,0.575,0.028,0.844,0.084c0.269,0.063,0.523,0.147,0.738,0.269l4.767,2.625
	c0.222,0.12,0.386,0.263,0.495,0.412c0.113,0.153,0.168,0.313,0.168,0.472c0,0.162-0.06,0.321-0.168,0.474
	c-0.109,0.151-0.279,0.291-0.503,0.416l-4.878,2.701c-0.231,0.125-0.488,0.223-0.766,0.285c-0.276,0.062-0.569,0.089-0.871,0.089
	c-0.292,0-0.585-0.029-0.862-0.089c-0.279-0.065-0.536-0.16-0.755-0.285l-4.766-2.704C120.593,197.7,120.432,197.56,120.327,197.408
	z M85.556,187.518c-0.278,0.058-0.566,0.084-0.848,0.084c-0.281,0-0.558-0.031-0.811-0.084c-0.253-0.057-0.488-0.143-0.683-0.255
	l-4.185-2.474c-0.192-0.11-0.325-0.241-0.407-0.383s-0.101-0.285-0.073-0.433c0.027-0.146,0.109-0.289,0.241-0.431
	c0.132-0.136,0.32-0.265,0.555-0.378l5.028-2.397c0.23-0.108,0.488-0.196,0.754-0.243c0.266-0.054,0.547-0.084,0.82-0.084
	c0.277,0,0.545,0.026,0.792,0.084c0.25,0.054,0.48,0.135,0.671,0.243l4.197,2.401c0.196,0.109,0.335,0.243,0.417,0.378
	c0.087,0.138,0.118,0.282,0.094,0.429c-0.024,0.149-0.094,0.294-0.224,0.431c-0.128,0.142-0.307,0.271-0.54,0.383l-5.038,2.472
	C86.094,187.371,85.833,187.458,85.556,187.518z M103.7,167.541c0.015-0.13,0.081-0.258,0.196-0.383
	c0.113-0.121,0.276-0.239,0.487-0.336l4.532-2.127c0.206-0.093,0.44-0.167,0.69-0.218c0.246-0.047,0.508-0.074,0.766-0.074
	c0.257,0,0.515,0.027,0.749,0.074c0.243,0.051,0.461,0.12,0.652,0.221l4.151,2.131c0.191,0.093,0.331,0.21,0.421,0.333
	c0.09,0.121,0.132,0.25,0.124,0.386c-0.007,0.129-0.069,0.259-0.175,0.383c-0.104,0.125-0.265,0.238-0.471,0.336l-4.536,2.188
	c-0.211,0.099-0.449,0.176-0.707,0.231c-0.253,0.052-0.523,0.076-0.784,0.076c-0.265,0-0.531-0.024-0.773-0.076
	c-0.241-0.051-0.469-0.125-0.662-0.231l-4.147-2.188c-0.192-0.103-0.328-0.22-0.41-0.341
	C103.719,167.807,103.688,167.674,103.7,167.541z M116.887,156.262c0.07-0.078,0.167-0.145,0.296-0.207l1.897-0.875
	c0.132-0.062,0.282-0.104,0.438-0.132c0.161-0.031,0.325-0.047,0.491-0.047c0.164,0,0.333,0.016,0.485,0.047
	c0.156,0.032,0.301,0.079,0.421,0.137l4.979,2.416c0.125,0.062,0.222,0.132,0.281,0.211c0.067,0.078,0.09,0.155,0.09,0.238
	c-0.005,0.082-0.04,0.159-0.102,0.238c-0.071,0.078-0.169,0.144-0.297,0.211l-1.897,0.894c-0.129,0.063-0.281,0.106-0.441,0.141
	c-0.16,0.031-0.329,0.046-0.5,0.046c-0.168,0-0.334-0.016-0.494-0.046c-0.157-0.036-0.306-0.083-0.431-0.141l-4.976-2.455
	c-0.121-0.063-0.216-0.132-0.274-0.208c-0.059-0.077-0.082-0.155-0.078-0.237C116.778,156.415,116.817,156.337,116.887,156.262z
	 M134.395,161.805c0.066,0.082,0.096,0.165,0.096,0.242c0,0.082-0.03,0.168-0.092,0.247c-0.065,0.078-0.164,0.147-0.291,0.214
	l-1.899,0.926c-0.129,0.066-0.281,0.109-0.444,0.144c-0.161,0.032-0.332,0.046-0.508,0.046c-0.172,0-0.343-0.014-0.502-0.051
	c-0.166-0.03-0.312-0.081-0.445-0.145l-5.133-2.529c-0.125-0.063-0.224-0.132-0.281-0.211c-0.063-0.083-0.089-0.161-0.086-0.242
	c0-0.082,0.04-0.164,0.102-0.242c0.069-0.082,0.169-0.148,0.296-0.214l1.898-0.898c0.133-0.063,0.282-0.106,0.442-0.14
	c0.159-0.032,0.328-0.046,0.495-0.046c0.172,0,0.339,0.019,0.495,0.05c0.161,0.031,0.306,0.078,0.434,0.136l5.134,2.5
	C134.231,161.657,134.329,161.728,134.395,161.805z M151.619,170.179c0.077,0.082,0.112,0.174,0.12,0.259
	c0.004,0.085-0.023,0.174-0.082,0.257c-0.066,0.082-0.16,0.164-0.289,0.234l-1.897,0.988c-0.129,0.065-0.282,0.117-0.445,0.151
	c-0.164,0.035-0.34,0.052-0.52,0.052c-0.179,0-0.355-0.017-0.523-0.052c-0.172-0.034-0.333-0.086-0.469-0.154l-5.474-2.694
	c-0.136-0.069-0.242-0.146-0.308-0.23c-0.067-0.085-0.102-0.172-0.106-0.258c0-0.082,0.032-0.172,0.091-0.253
	c0.065-0.081,0.163-0.154,0.291-0.227l1.899-0.96c0.127-0.067,0.28-0.112,0.444-0.149c0.16-0.03,0.335-0.051,0.507-0.051
	c0.175,0,0.352,0.021,0.516,0.051c0.165,0.035,0.32,0.082,0.458,0.149l5.469,2.662C151.44,170.021,151.549,170.097,151.619,170.179z
	 M160.659,174.57c0.079,0.087,0.121,0.181,0.129,0.271c0.013,0.09-0.016,0.184-0.074,0.269c-0.063,0.082-0.157,0.168-0.285,0.238
	l-1.893,1.022c-0.129,0.072-0.281,0.121-0.448,0.157c-0.168,0.035-0.348,0.057-0.527,0.057c-0.184,0-0.363-0.021-0.54-0.057
	c-0.172-0.038-0.334-0.09-0.479-0.159l-5.652-2.788c-0.14-0.069-0.246-0.148-0.321-0.236c-0.074-0.082-0.113-0.177-0.117-0.267
	c-0.004-0.087,0.023-0.18,0.082-0.261c0.058-0.084,0.161-0.166,0.289-0.236l1.897-0.99c0.129-0.069,0.281-0.121,0.445-0.155
	c0.164-0.036,0.338-0.052,0.515-0.052c0.18,0,0.355,0.02,0.527,0.055c0.168,0.029,0.327,0.082,0.464,0.152l5.652,2.743
	C160.469,174.402,160.578,174.488,160.659,174.57z M179.652,183.804c0.086,0.094,0.136,0.191,0.152,0.289
	c0.02,0.093,0,0.196-0.06,0.285c-0.06,0.088-0.148,0.178-0.277,0.252l-1.883,1.089c-0.127,0.078-0.283,0.134-0.452,0.174
	c-0.168,0.037-0.355,0.058-0.543,0.058c-0.185,0-0.375-0.021-0.559-0.058c-0.179-0.041-0.351-0.096-0.508-0.174l-6.046-2.982
	c-0.146-0.073-0.265-0.161-0.348-0.25c-0.082-0.09-0.129-0.188-0.14-0.281c-0.012-0.097,0.01-0.196,0.069-0.28
	c0.063-0.092,0.153-0.177,0.281-0.25l1.889-1.059c0.129-0.073,0.281-0.125,0.448-0.163c0.169-0.035,0.348-0.056,0.532-0.056
	c0.185,0,0.368,0.021,0.547,0.056c0.175,0.038,0.344,0.09,0.495,0.163l6.04,2.937C179.446,183.633,179.565,183.713,179.652,183.804z
	 M201.912,195.179c0.171-0.041,0.359-0.063,0.553-0.063c0.192,0,0.392,0.02,0.578,0.063c0.188,0.043,0.374,0.102,0.545,0.185
	l6.698,3.257c0.172,0.081,0.307,0.179,0.406,0.279c0.101,0.099,0.168,0.211,0.197,0.317c0.028,0.109,0.021,0.219-0.028,0.32
	c-0.047,0.103-0.133,0.199-0.261,0.281l-1.86,1.213c-0.127,0.083-0.284,0.148-0.455,0.193c-0.176,0.041-0.368,0.063-0.567,0.063
	c-0.195,0-0.397-0.021-0.589-0.063c-0.192-0.043-0.387-0.107-0.56-0.193l-6.716-3.31c-0.165-0.082-0.295-0.176-0.398-0.276
	c-0.092-0.099-0.154-0.211-0.178-0.318c-0.021-0.104-0.013-0.214,0.043-0.312c0.05-0.097,0.135-0.196,0.265-0.272l1.871-1.18
	C201.587,195.279,201.74,195.22,201.912,195.179z M212.71,200.438c0.175-0.043,0.366-0.064,0.563-0.064
	c0.193,0,0.397,0.021,0.589,0.064c0.201,0.041,0.386,0.105,0.559,0.187l6.945,3.379c0.174,0.081,0.319,0.184,0.425,0.288
	c0.104,0.104,0.18,0.218,0.215,0.332c0.033,0.111,0.027,0.226-0.017,0.33c-0.046,0.106-0.129,0.207-0.253,0.293l-1.847,1.255
	c-0.129,0.089-0.284,0.154-0.46,0.198c-0.175,0.046-0.372,0.066-0.57,0.066c-0.199,0-0.407-0.023-0.608-0.066
	c-0.2-0.047-0.398-0.109-0.57-0.198l-6.962-3.433c-0.172-0.082-0.309-0.185-0.41-0.285c-0.097-0.104-0.165-0.217-0.196-0.327
	c-0.03-0.109-0.02-0.224,0.03-0.329c0.049-0.103,0.135-0.201,0.258-0.285l1.86-1.218C212.385,200.543,212.541,200.48,212.71,200.438
	z M226.03,220.015c-0.044,0.016-0.087,0.032-0.133,0.048c-0.103,0.034-0.212,0.069-0.322,0.089
	c-0.059,0.013-0.112,0.023-0.172,0.032c-0.109,0.02-0.226,0.031-0.339,0.04c-0.063,0.003-0.117,0.011-0.18,0.011
	c-0.137,0.005-0.276-0.003-0.417-0.016c-0.039-0.004-0.082-0.004-0.121-0.008c-0.024,0-0.055-0.008-0.078-0.013
	c-0.116-0.015-0.233-0.034-0.351-0.058c-0.051-0.013-0.094-0.024-0.145-0.036c-0.099-0.027-0.198-0.056-0.293-0.082
	c-0.042-0.016-0.086-0.031-0.133-0.045c-0.133-0.053-0.267-0.104-0.395-0.169l-6.008-3.065c-0.27-0.141-0.492-0.3-0.656-0.472
	c-0.164-0.173-0.27-0.357-0.315-0.535c-0.05-0.184-0.039-0.363,0.035-0.535c0.073-0.172,0.205-0.333,0.406-0.468l4.27-2.968
	c0.197-0.135,0.434-0.237,0.705-0.304c0.268-0.066,0.563-0.101,0.868-0.101c0.304,0,0.616,0.033,0.926,0.095
	c0.304,0.071,0.6,0.17,0.879,0.306l5.976,2.968c0.278,0.137,0.504,0.296,0.677,0.469c0.169,0.171,0.283,0.35,0.338,0.534
	c0.061,0.182,0.056,0.366-0.012,0.539c-0.066,0.172-0.192,0.331-0.386,0.472l-4.24,3.065
	C226.299,219.891,226.166,219.957,226.03,220.015z M196.661,228.567l-5.913-3.235c-0.265-0.148-0.481-0.32-0.633-0.499
	c-0.154-0.185-0.245-0.375-0.282-0.567c-0.035-0.195-0.004-0.386,0.082-0.566c0.09-0.179,0.243-0.351,0.457-0.495l4.643-3.131
	c0.211-0.146,0.463-0.249,0.746-0.324c0.277-0.069,0.58-0.106,0.895-0.106c0.312,0,0.633,0.039,0.94,0.106
	c0.309,0.074,0.604,0.179,0.874,0.32l5.894,3.135c0.275,0.145,0.493,0.313,0.651,0.491c0.16,0.181,0.266,0.375,0.309,0.565
	c0.044,0.193,0.024,0.387-0.058,0.566c-0.081,0.185-0.227,0.352-0.435,0.5l-4.621,3.236c-0.214,0.153-0.476,0.265-0.762,0.341
	c-0.289,0.077-0.601,0.112-0.925,0.112c-0.32,0-0.651-0.04-0.969-0.108C197.247,228.834,196.938,228.717,196.661,228.567z
	 M187.01,222.119c-0.281,0.074-0.593,0.107-0.905,0.107c-0.316,0-0.636-0.035-0.945-0.107c-0.307-0.067-0.6-0.179-0.864-0.324
	l-5.673-3.106c-0.257-0.143-0.46-0.306-0.601-0.476c-0.145-0.176-0.23-0.36-0.253-0.545c-0.026-0.187,0.008-0.37,0.101-0.544
	c0.092-0.171,0.246-0.334,0.464-0.472l4.666-3.008c0.21-0.14,0.465-0.243,0.741-0.308c0.273-0.066,0.573-0.1,0.886-0.1
	c0.306,0,0.617,0.036,0.918,0.1c0.297,0.067,0.587,0.17,0.843,0.308l5.653,3.005c0.263,0.141,0.472,0.3,0.622,0.475
	c0.15,0.174,0.244,0.357,0.28,0.542c0.034,0.187,0.007,0.37-0.077,0.545c-0.086,0.172-0.24,0.335-0.446,0.477l-4.645,3.104
	C187.552,221.936,187.295,222.044,187.01,222.119z M173.258,215.609c-0.3-0.07-0.586-0.177-0.839-0.313l-5.445-2.983
	c-0.247-0.134-0.438-0.287-0.573-0.457c-0.133-0.169-0.212-0.344-0.232-0.523c-0.02-0.177,0.024-0.353,0.122-0.519
	c0.092-0.164,0.252-0.32,0.472-0.453l4.681-2.884c0.215-0.133,0.465-0.231,0.738-0.297c0.272-0.067,0.569-0.095,0.87-0.095
	c0.3,0,0.605,0.03,0.896,0.095c0.291,0.069,0.57,0.164,0.816,0.297l5.43,2.884c0.255,0.133,0.449,0.288,0.591,0.453
	c0.146,0.168,0.231,0.342,0.253,0.519c0.028,0.18-0.004,0.355-0.092,0.523c-0.091,0.168-0.242,0.323-0.453,0.457l-4.669,2.983
	c-0.219,0.136-0.473,0.241-0.754,0.313c-0.284,0.069-0.587,0.102-0.895,0.102C173.867,215.709,173.554,215.679,173.258,215.609z
	 M163.613,209.354c-0.278,0.065-0.578,0.098-0.882,0.098c-0.306,0-0.61-0.033-0.899-0.098c-0.291-0.066-0.57-0.169-0.811-0.302
	l-5.231-2.856c-0.237-0.134-0.417-0.282-0.545-0.441c-0.129-0.16-0.196-0.332-0.207-0.499c-0.011-0.174,0.036-0.341,0.136-0.502
	c0.101-0.16,0.261-0.308,0.48-0.437l4.692-2.772c0.214-0.13,0.465-0.223,0.733-0.285c0.269-0.063,0.566-0.095,0.859-0.095
	c0.292,0,0.592,0.032,0.878,0.095c0.284,0.063,0.553,0.159,0.788,0.285l5.22,2.776c0.243,0.125,0.43,0.274,0.567,0.433
	c0.136,0.16,0.21,0.329,0.233,0.502c0.02,0.167-0.02,0.339-0.114,0.499c-0.093,0.159-0.246,0.312-0.46,0.441l-4.685,2.856
	C164.147,209.186,163.892,209.292,163.613,209.354z M125.054,162.735c0.241,0.047,0.464,0.117,0.656,0.215l4.234,2.104
	c0.197,0.093,0.343,0.211,0.438,0.328c0.099,0.121,0.146,0.25,0.146,0.379c-0.004,0.129-0.059,0.258-0.157,0.383
	c-0.101,0.118-0.25,0.234-0.452,0.332l-4.389,2.154c-0.207,0.1-0.438,0.176-0.687,0.229c-0.25,0.05-0.512,0.077-0.777,0.077
	c-0.257,0-0.523-0.027-0.764-0.077c-0.247-0.053-0.477-0.127-0.673-0.229l-4.232-2.163c-0.195-0.093-0.334-0.211-0.424-0.332
	c-0.09-0.12-0.132-0.245-0.125-0.378c0.008-0.126,0.065-0.253,0.168-0.377c0.109-0.118,0.262-0.234,0.468-0.329l4.384-2.096
	c0.201-0.099,0.429-0.169,0.675-0.219c0.242-0.046,0.501-0.074,0.758-0.074C124.557,162.661,124.816,162.684,125.054,162.735z
	 M187.413,193.574l5.294,2.628c0.24,0.119,0.441,0.266,0.582,0.414c0.139,0.153,0.23,0.313,0.26,0.472
	c0.033,0.164,0.009,0.324-0.073,0.478c-0.081,0.15-0.218,0.292-0.413,0.415l-4.333,2.707c-0.199,0.124-0.441,0.218-0.706,0.28
	c-0.266,0.063-0.559,0.093-0.854,0.089c-0.29,0-0.591-0.029-0.885-0.089c-0.287-0.067-0.566-0.16-0.814-0.285l-5.306-2.708
	c-0.241-0.121-0.43-0.261-0.566-0.416c-0.137-0.15-0.219-0.311-0.242-0.471c-0.026-0.159,0.005-0.319,0.091-0.472
	c0.086-0.153,0.233-0.289,0.431-0.411l4.348-2.627c0.198-0.121,0.434-0.21,0.693-0.27c0.263-0.06,0.544-0.087,0.832-0.09
	c0.284,0,0.579,0.03,0.864,0.09C186.902,193.368,187.175,193.457,187.413,193.574z M212.612,213.477
	c-0.27,0.069-0.57,0.103-0.878,0.103c-0.305,0-0.621-0.036-0.926-0.103c-0.305-0.067-0.601-0.172-0.871-0.308l-5.76-2.938
	c-0.263-0.133-0.47-0.288-0.627-0.454c-0.151-0.163-0.249-0.339-0.292-0.514c-0.038-0.176-0.021-0.353,0.059-0.517
	c0.078-0.16,0.215-0.315,0.412-0.443l4.307-2.846c0.195-0.13,0.433-0.227,0.702-0.294c0.261-0.066,0.559-0.094,0.855-0.094
	c0.301,0,0.604,0.03,0.906,0.094c0.295,0.07,0.584,0.164,0.847,0.294l5.737,2.846c0.266,0.128,0.479,0.283,0.642,0.443
	c0.158,0.164,0.26,0.341,0.311,0.517c0.049,0.175,0.041,0.351-0.033,0.514c-0.071,0.165-0.203,0.321-0.399,0.454l-4.278,2.938
	C213.128,213.305,212.881,213.405,212.612,213.477z M205.491,203.548c-0.077,0.156-0.212,0.305-0.406,0.434l-4.31,2.822
	c-0.202,0.13-0.445,0.23-0.714,0.292c-0.27,0.064-0.563,0.098-0.863,0.098c-0.301,0-0.604-0.033-0.9-0.098
	c-0.298-0.062-0.584-0.162-0.84-0.292l-5.528-2.822c-0.25-0.129-0.45-0.277-0.594-0.434c-0.146-0.158-0.237-0.329-0.265-0.496
	c-0.035-0.168-0.01-0.334,0.072-0.492c0.083-0.155,0.227-0.305,0.422-0.429l4.33-2.733c0.195-0.121,0.433-0.219,0.699-0.276
	c0.26-0.067,0.549-0.095,0.842-0.095s0.595,0.032,0.888,0.095c0.284,0.063,0.569,0.153,0.818,0.276l5.505,2.733
	c0.254,0.128,0.461,0.273,0.608,0.429c0.153,0.161,0.246,0.329,0.284,0.492C205.584,203.227,205.565,203.39,205.491,203.548z
	 M190.841,213.878c-0.301-0.067-0.59-0.171-0.851-0.308l-5.579-2.947c-0.253-0.133-0.452-0.289-0.593-0.454
	c-0.146-0.163-0.229-0.337-0.258-0.516c-0.026-0.174,0.004-0.351,0.091-0.515c0.09-0.163,0.24-0.315,0.444-0.449l4.493-2.854
	c0.201-0.129,0.449-0.23,0.718-0.292c0.271-0.066,0.567-0.096,0.864-0.096s0.6,0.032,0.894,0.096
	c0.292,0.063,0.574,0.163,0.832,0.292l5.564,2.854c0.251,0.134,0.459,0.285,0.609,0.449s0.244,0.341,0.278,0.511
	c0.04,0.176,0.02,0.353-0.066,0.516c-0.081,0.168-0.222,0.321-0.42,0.454l-4.476,2.947c-0.209,0.138-0.46,0.242-0.732,0.309
	c-0.273,0.066-0.572,0.102-0.887,0.102C191.456,213.979,191.144,213.945,190.841,213.878z M180.979,207.729
	c-0.273,0.067-0.569,0.099-0.875,0.099c-0.304,0-0.608-0.036-0.9-0.099c-0.292-0.062-0.57-0.164-0.819-0.293l-5.363-2.836
	c-0.244-0.124-0.435-0.273-0.569-0.434c-0.138-0.159-0.216-0.329-0.239-0.498c-0.021-0.17,0.017-0.338,0.105-0.494
	c0.094-0.16,0.241-0.306,0.452-0.435l4.509-2.744c0.208-0.124,0.454-0.219,0.723-0.28c0.266-0.063,0.553-0.09,0.847-0.09
	c0.295,0,0.594,0.034,0.884,0.093c0.288,0.059,0.558,0.156,0.801,0.281l5.347,2.746c0.247,0.123,0.445,0.273,0.583,0.433
	c0.146,0.156,0.229,0.324,0.257,0.49c0.028,0.169,0.004,0.337-0.082,0.498c-0.082,0.154-0.229,0.306-0.434,0.434l-4.492,2.834
	C181.499,207.562,181.248,207.664,180.979,207.729z M169.756,201.823c-0.27,0.066-0.567,0.095-0.863,0.095s-0.597-0.032-0.887-0.095
	c-0.284-0.063-0.558-0.154-0.795-0.285l-5.154-2.721c-0.238-0.124-0.416-0.265-0.542-0.421c-0.125-0.149-0.2-0.313-0.214-0.474
	c-0.012-0.164,0.028-0.327,0.125-0.474c0.092-0.153,0.25-0.295,0.46-0.415l4.521-2.645c0.208-0.121,0.449-0.209,0.715-0.27
	c0.265-0.062,0.55-0.09,0.835-0.09c0.289,0,0.577,0.031,0.859,0.09c0.281,0.061,0.542,0.148,0.777,0.27l5.145,2.645
	c0.242,0.12,0.425,0.261,0.562,0.415c0.13,0.15,0.211,0.31,0.238,0.474c0.023,0.161-0.013,0.324-0.098,0.476
	c-0.09,0.154-0.237,0.297-0.44,0.419l-4.512,2.721C170.27,201.668,170.027,201.76,169.756,201.823z M140.86,187.488
	c-0.11-0.142-0.169-0.289-0.172-0.44c-0.004-0.148,0.05-0.297,0.152-0.437c0.103-0.142,0.262-0.275,0.473-0.386l4.536-2.454
	c0.211-0.112,0.448-0.198,0.709-0.249c0.254-0.059,0.535-0.082,0.809-0.082c0.277,0,0.558,0.027,0.819,0.082
	c0.261,0.056,0.516,0.137,0.734,0.249l4.777,2.454c0.224,0.11,0.395,0.244,0.512,0.389c0.114,0.137,0.181,0.288,0.191,0.438
	c0.013,0.147-0.031,0.3-0.128,0.44c-0.093,0.141-0.245,0.271-0.452,0.392l-4.535,2.521c-0.211,0.116-0.458,0.206-0.722,0.26
	c-0.261,0.064-0.55,0.086-0.832,0.086c-0.285,0-0.57-0.026-0.842-0.086c-0.271-0.059-0.527-0.144-0.747-0.26l-4.791-2.527
	C141.137,187.762,140.973,187.632,140.86,187.488z M121.537,176.948c0.007-0.136,0.066-0.277,0.174-0.406
	c0.109-0.134,0.27-0.255,0.479-0.364l4.542-2.279c0.208-0.102,0.444-0.18,0.698-0.233c0.254-0.056,0.523-0.079,0.789-0.079
	s0.534,0.027,0.786,0.079c0.25,0.054,0.484,0.129,0.686,0.237l4.45,2.284c0.207,0.101,0.364,0.228,0.465,0.359
	c0.101,0.129,0.155,0.271,0.155,0.406c0.004,0.14-0.051,0.282-0.151,0.41c-0.098,0.135-0.253,0.254-0.461,0.362l-4.544,2.348
	c-0.211,0.109-0.453,0.191-0.715,0.245c-0.256,0.055-0.539,0.082-0.81,0.082c-0.274,0-0.551-0.027-0.809-0.082
	c-0.254-0.06-0.496-0.138-0.703-0.245l-4.446-2.352c-0.208-0.104-0.357-0.229-0.45-0.363
	C121.574,177.229,121.529,177.089,121.537,176.948z M131.1,181.481c0.106-0.133,0.267-0.262,0.476-0.375l4.539-2.361
	c0.212-0.105,0.447-0.188,0.709-0.241c0.251-0.055,0.526-0.082,0.8-0.082c0.269,0,0.545,0.032,0.804,0.082
	c0.254,0.056,0.5,0.134,0.711,0.241l4.606,2.365c0.215,0.109,0.38,0.238,0.488,0.376c0.111,0.131,0.169,0.275,0.172,0.42
	c0.007,0.146-0.039,0.288-0.141,0.426c-0.098,0.132-0.251,0.262-0.457,0.374l-4.541,2.432c-0.21,0.109-0.457,0.199-0.722,0.253
	c-0.257,0.06-0.542,0.082-0.82,0.082c-0.277,0-0.563-0.026-0.824-0.082c-0.261-0.054-0.511-0.14-0.726-0.253l-4.611-2.432
	c-0.209-0.108-0.371-0.242-0.471-0.378c-0.103-0.139-0.157-0.282-0.153-0.427C130.941,181.761,130.995,181.617,131.1,181.481z
	 M150.94,191.924c0.103-0.145,0.257-0.28,0.469-0.402l4.532-2.542c0.206-0.117,0.448-0.202,0.709-0.256
	c0.263-0.064,0.543-0.087,0.824-0.087c0.28,0,0.569,0.027,0.839,0.087c0.27,0.058,0.527,0.145,0.75,0.256l4.961,2.545
	c0.232,0.113,0.408,0.252,0.531,0.403c0.125,0.145,0.2,0.3,0.218,0.456c0.017,0.157-0.021,0.313-0.113,0.458
	c-0.089,0.149-0.242,0.284-0.448,0.407l-4.525,2.623c-0.211,0.12-0.457,0.215-0.726,0.272c-0.27,0.061-0.559,0.091-0.851,0.091
	c-0.288,0-0.582-0.035-0.864-0.091c-0.277-0.062-0.542-0.151-0.768-0.272l-4.966-2.623c-0.227-0.121-0.398-0.258-0.515-0.407
	c-0.117-0.148-0.185-0.304-0.192-0.46C150.799,192.225,150.843,192.068,150.94,191.924z M181.936,191.813
	c-0.082,0.149-0.228,0.285-0.423,0.406l-4.352,2.601c-0.203,0.121-0.44,0.214-0.707,0.271c-0.261,0.062-0.547,0.09-0.837,0.09
	c-0.289,0-0.581-0.031-0.86-0.09c-0.279-0.061-0.548-0.149-0.783-0.271l-5.105-2.603c-0.234-0.117-0.41-0.254-0.539-0.404
	c-0.128-0.147-0.199-0.298-0.218-0.452c-0.02-0.156,0.015-0.309,0.105-0.453c0.089-0.145,0.24-0.28,0.441-0.403l4.36-2.521
	c0.198-0.112,0.434-0.202,0.697-0.258c0.252-0.06,0.534-0.08,0.813-0.086c0.283,0,0.57,0.032,0.84,0.086
	c0.274,0.06,0.539,0.142,0.769,0.258l5.09,2.521c0.238,0.119,0.418,0.255,0.554,0.403c0.138,0.147,0.215,0.297,0.24,0.453
	C182.048,191.515,182.018,191.669,181.936,191.813z M170.833,186.287c-0.085,0.142-0.229,0.274-0.43,0.391l-4.365,2.503
	c-0.202,0.116-0.44,0.202-0.702,0.261c-0.262,0.059-0.543,0.082-0.822,0.082c-0.282,0-0.57-0.027-0.845-0.082
	c-0.269-0.063-0.53-0.149-0.758-0.261l-4.906-2.508c-0.227-0.113-0.397-0.242-0.517-0.386c-0.117-0.145-0.183-0.289-0.199-0.439
	c-0.012-0.147,0.032-0.295,0.125-0.433c0.093-0.141,0.243-0.269,0.446-0.386l4.376-2.429c0.199-0.109,0.433-0.196,0.686-0.25
	c0.253-0.055,0.53-0.081,0.805-0.081c0.278,0,0.558,0.03,0.824,0.081c0.266,0.05,0.519,0.139,0.738,0.247l4.902,2.43
	c0.227,0.114,0.403,0.243,0.527,0.386c0.125,0.14,0.199,0.286,0.219,0.434C170.958,186,170.923,186.15,170.833,186.287z
	 M160.154,180.969c-0.091,0.134-0.24,0.257-0.438,0.372l-4.375,2.408c-0.203,0.109-0.441,0.197-0.699,0.25
	c-0.257,0.055-0.534,0.082-0.811,0.082s-0.558-0.031-0.824-0.082c-0.261-0.061-0.515-0.142-0.733-0.25l-4.724-2.413
	c-0.218-0.106-0.383-0.237-0.491-0.371c-0.114-0.137-0.173-0.276-0.181-0.421c-0.008-0.145,0.04-0.284,0.133-0.418
	c0.097-0.135,0.246-0.26,0.453-0.37l4.379-2.343c0.204-0.104,0.434-0.187,0.688-0.24c0.253-0.053,0.523-0.082,0.797-0.082
	c0.269,0,0.544,0.027,0.803,0.082c0.259,0.055,0.503,0.133,0.723,0.24l4.721,2.345c0.219,0.108,0.385,0.235,0.502,0.373
	c0.113,0.133,0.183,0.276,0.196,0.417C160.286,180.692,160.243,180.832,160.154,180.969z M149.863,175.84
	c-0.093,0.134-0.243,0.254-0.44,0.359l-4.384,2.323c-0.206,0.105-0.441,0.188-0.7,0.241c-0.256,0.055-0.526,0.081-0.795,0.081
	c-0.274,0-0.546-0.026-0.805-0.081c-0.257-0.055-0.499-0.133-0.713-0.241l-4.553-2.323c-0.206-0.101-0.366-0.229-0.468-0.359
	c-0.105-0.127-0.16-0.265-0.16-0.405c-0.004-0.136,0.046-0.273,0.146-0.407c0.098-0.127,0.251-0.243,0.457-0.355l4.384-2.252
	c0.204-0.102,0.435-0.18,0.684-0.235c0.249-0.055,0.516-0.078,0.78-0.078c0.266,0,0.539,0.023,0.789,0.078
	c0.25,0.056,0.492,0.13,0.703,0.235l4.549,2.255c0.21,0.107,0.37,0.228,0.48,0.356c0.108,0.129,0.167,0.269,0.175,0.406
	C149.999,175.575,149.955,175.711,149.863,175.84z M139.944,170.904c-0.097,0.125-0.246,0.241-0.445,0.344l-4.389,2.235
	c-0.206,0.104-0.441,0.183-0.694,0.236c-0.25,0.05-0.519,0.078-0.785,0.078c-0.269,0-0.539-0.028-0.789-0.081
	c-0.25-0.055-0.488-0.129-0.695-0.235l-4.383-2.241c-0.204-0.097-0.351-0.218-0.449-0.343c-0.093-0.125-0.145-0.258-0.142-0.394
	c0.004-0.131,0.06-0.263,0.161-0.392c0.101-0.129,0.257-0.241,0.459-0.345l4.393-2.174c0.199-0.096,0.426-0.175,0.676-0.227
	c0.25-0.05,0.508-0.072,0.769-0.072c0.262,0,0.526,0.022,0.768,0.072c0.246,0.052,0.476,0.124,0.679,0.227l4.384,2.18
	c0.207,0.098,0.359,0.218,0.461,0.343c0.102,0.125,0.155,0.257,0.159,0.394C140.088,170.647,140.041,170.78,139.944,170.904z
	 M118.367,168.992c0.246-0.051,0.516-0.078,0.778-0.078c0.256,0,0.521,0.027,0.764,0.078c0.243,0.052,0.473,0.125,0.671,0.226
	l4.294,2.207c0.199,0.099,0.347,0.22,0.445,0.349c0.093,0.125,0.14,0.257,0.136,0.394c-0.003,0.136-0.06,0.269-0.164,0.398
	c-0.104,0.129-0.257,0.245-0.469,0.351l-4.538,2.26c-0.212,0.106-0.45,0.188-0.712,0.243c-0.253,0.054-0.527,0.081-0.796,0.081
	c-0.27,0-0.539-0.027-0.788-0.081c-0.25-0.055-0.484-0.129-0.682-0.239l-4.294-2.271c-0.196-0.101-0.339-0.221-0.428-0.346
	c-0.09-0.13-0.129-0.263-0.118-0.402c0.012-0.134,0.074-0.265,0.184-0.397c0.115-0.126,0.274-0.241,0.484-0.349l4.541-2.198
	C117.879,169.122,118.113,169.044,118.367,168.992z M113.061,174.799c0.246,0.053,0.481,0.131,0.68,0.236l4.333,2.304
	c0.199,0.105,0.347,0.234,0.444,0.367c0.094,0.129,0.138,0.269,0.129,0.41c-0.007,0.14-0.066,0.277-0.175,0.415
	c-0.113,0.129-0.273,0.254-0.491,0.362l-4.699,2.367c-0.219,0.108-0.469,0.191-0.734,0.245c-0.262,0.055-0.543,0.082-0.816,0.082
	c-0.272,0-0.549-0.027-0.804-0.082c-0.25-0.055-0.488-0.134-0.691-0.243l-4.325-2.369c-0.2-0.105-0.344-0.233-0.434-0.367
	c-0.086-0.133-0.125-0.272-0.113-0.414c0.016-0.141,0.081-0.277,0.199-0.411c0.118-0.132,0.285-0.252,0.504-0.362l4.695-2.299
	c0.219-0.106,0.458-0.184,0.718-0.238c0.254-0.055,0.526-0.082,0.797-0.082C112.546,174.719,112.816,174.743,113.061,174.799z
	 M114.764,182.71c0.113-0.135,0.281-0.265,0.5-0.377l4.704-2.381c0.215-0.109,0.457-0.194,0.719-0.242
	c0.261-0.056,0.538-0.082,0.811-0.082c0.274,0,0.546,0.026,0.801,0.082c0.253,0.058,0.495,0.137,0.704,0.246l4.489,2.384
	c0.206,0.11,0.362,0.237,0.464,0.375c0.103,0.137,0.152,0.281,0.148,0.431c-0.004,0.145-0.059,0.287-0.169,0.423
	c-0.106,0.138-0.269,0.266-0.484,0.384l-4.703,2.45c-0.222,0.114-0.469,0.204-0.733,0.259c-0.266,0.056-0.549,0.081-0.833,0.081
	c-0.277,0-0.558-0.025-0.819-0.081c-0.257-0.063-0.502-0.145-0.714-0.259l-4.484-2.454c-0.207-0.114-0.357-0.242-0.453-0.384
	c-0.094-0.136-0.137-0.282-0.129-0.429C114.588,182.991,114.647,182.848,114.764,182.71z M124.3,187.915
	c0.114-0.142,0.278-0.274,0.497-0.396l4.708-2.471c0.215-0.113,0.461-0.197,0.727-0.253c0.264-0.055,0.542-0.082,0.82-0.082
	c0.275,0,0.557,0.031,0.818,0.086c0.262,0.056,0.509,0.142,0.723,0.25l4.657,2.478c0.218,0.114,0.379,0.246,0.488,0.392
	c0.108,0.145,0.163,0.293,0.168,0.445c0.004,0.148-0.05,0.3-0.156,0.44c-0.107,0.146-0.266,0.278-0.481,0.396l-4.705,2.548
	c-0.218,0.118-0.472,0.207-0.737,0.265c-0.27,0.06-0.558,0.088-0.844,0.088c-0.284,0-0.57-0.032-0.838-0.088
	c-0.266-0.062-0.519-0.146-0.735-0.265l-4.657-2.548c-0.211-0.118-0.372-0.251-0.473-0.396c-0.102-0.143-0.151-0.297-0.148-0.448
	C124.133,188.207,124.192,188.055,124.3,187.915z M134.205,193.317c0.109-0.15,0.273-0.285,0.491-0.408l4.705-2.566
	c0.218-0.117,0.464-0.207,0.732-0.261c0.262-0.061,0.548-0.087,0.832-0.087c0.281,0,0.57,0.031,0.836,0.087
	c0.27,0.059,0.524,0.144,0.741,0.261l4.834,2.566c0.226,0.118,0.398,0.258,0.51,0.408c0.119,0.147,0.181,0.304,0.189,0.459
	c0.007,0.161-0.039,0.317-0.141,0.466c-0.103,0.149-0.257,0.285-0.473,0.405l-4.705,2.647c-0.218,0.121-0.473,0.215-0.741,0.278
	c-0.274,0.063-0.567,0.089-0.854,0.089c-0.293,0-0.583-0.028-0.864-0.089c-0.273-0.065-0.53-0.157-0.753-0.278l-4.837-2.651
	c-0.223-0.116-0.391-0.256-0.5-0.406c-0.104-0.147-0.164-0.303-0.164-0.459C134.044,193.621,134.099,193.462,134.205,193.317z
	 M144.483,198.923c0.105-0.153,0.265-0.292,0.488-0.417l4.699-2.671c0.214-0.121,0.466-0.213,0.734-0.274
	c0.27-0.059,0.559-0.086,0.847-0.086c0.289,0,0.582,0.031,0.859,0.092c0.278,0.063,0.54,0.152,0.766,0.273l5.023,2.67
	c0.236,0.125,0.411,0.267,0.536,0.417c0.124,0.153,0.195,0.317,0.21,0.48c0.015,0.164-0.027,0.329-0.128,0.479
	c-0.098,0.157-0.25,0.302-0.468,0.423l-4.692,2.751c-0.223,0.127-0.477,0.227-0.75,0.288c-0.274,0.064-0.57,0.093-0.867,0.093
	c-0.297,0-0.597-0.034-0.883-0.093c-0.28-0.067-0.549-0.161-0.779-0.288l-5.029-2.751c-0.231-0.127-0.407-0.271-0.523-0.423
	c-0.118-0.155-0.18-0.319-0.189-0.484C144.331,199.239,144.382,199.077,144.483,198.923z M204.803,220.27
	c-0.276,0.072-0.581,0.109-0.896,0.109c-0.312,0-0.634-0.035-0.945-0.105c-0.307-0.075-0.607-0.18-0.882-0.321l-5.809-3.069
	c-0.261-0.14-0.471-0.299-0.624-0.471c-0.148-0.173-0.242-0.356-0.281-0.541c-0.036-0.184-0.013-0.362,0.072-0.534
	c0.087-0.171,0.236-0.331,0.438-0.469l4.472-2.974c0.204-0.133,0.448-0.238,0.725-0.301c0.269-0.069,0.57-0.101,0.873-0.101
	c0.306,0,0.618,0.034,0.917,0.101c0.303,0.066,0.595,0.168,0.86,0.301l5.784,2.974c0.266,0.138,0.485,0.298,0.645,0.465
	c0.155,0.174,0.262,0.354,0.306,0.534c0.047,0.185,0.029,0.37-0.043,0.543c-0.078,0.169-0.22,0.329-0.417,0.471l-4.445,3.067
	C205.339,220.089,205.086,220.198,204.803,220.27z M207.705,221.799c0.082-0.179,0.221-0.348,0.424-0.487l4.443-3.097
	c0.109-0.081,0.243-0.144,0.378-0.198c0.043-0.021,0.091-0.034,0.142-0.052c0.093-0.034,0.198-0.066,0.301-0.084
	c0.059-0.014,0.112-0.024,0.172-0.032c0.105-0.021,0.209-0.032,0.32-0.043c0.066-0.005,0.124-0.009,0.19-0.009
	c0.11-0.004,0.23,0,0.345,0.004c0.066,0.005,0.124,0.005,0.191,0.014c0.047,0.003,0.091,0.012,0.142,0.02
	c0.097,0.013,0.198,0.031,0.297,0.049c0.051,0.015,0.096,0.025,0.147,0.036c0.098,0.022,0.196,0.055,0.288,0.082
	c0.047,0.016,0.087,0.028,0.129,0.044c0.137,0.05,0.269,0.104,0.399,0.171l6.024,3.092c0.282,0.146,0.513,0.313,0.68,0.491
	c0.173,0.177,0.284,0.368,0.341,0.559c0.055,0.193,0.05,0.384-0.025,0.559c-0.067,0.179-0.201,0.347-0.406,0.496l-4.413,3.197
	c-0.203,0.149-0.457,0.258-0.738,0.334c-0.281,0.074-0.59,0.11-0.914,0.11c-0.32,0-0.652-0.039-0.972-0.11
	c-0.32-0.076-0.633-0.187-0.912-0.334l-6.056-3.197c-0.274-0.146-0.498-0.313-0.661-0.492c-0.16-0.179-0.261-0.37-0.307-0.563
	C207.611,222.167,207.628,221.976,207.705,221.799z M230.991,212.392c-0.18,0.046-0.381,0.069-0.577,0.069
	c-0.208,0-0.415-0.023-0.621-0.069c-0.209-0.048-0.408-0.113-0.591-0.203l-7.226-3.563c-0.18-0.087-0.324-0.188-0.432-0.296
	c-0.104-0.107-0.178-0.227-0.214-0.341c-0.029-0.113-0.024-0.233,0.021-0.339c0.043-0.105,0.129-0.211,0.253-0.298l1.843-1.261
	c0.124-0.086,0.284-0.153,0.46-0.198c0.175-0.043,0.368-0.065,0.57-0.065c0.199,0,0.406,0.022,0.601,0.065
	c0.204,0.047,0.397,0.109,0.573,0.198l7.207,3.498c0.183,0.09,0.331,0.19,0.445,0.301c0.108,0.109,0.191,0.23,0.227,0.342
	c0.042,0.118,0.042,0.24,0,0.349c-0.043,0.11-0.121,0.216-0.247,0.302l-1.829,1.307
	C231.323,212.274,231.166,212.344,230.991,212.392z M200.123,194.308c-0.052,0.1-0.137,0.192-0.265,0.271l-1.869,1.171
	c-0.13,0.082-0.286,0.141-0.458,0.184c-0.173,0.042-0.363,0.063-0.554,0.063c-0.196,0-0.394-0.021-0.582-0.063
	c-0.188-0.043-0.374-0.102-0.539-0.184l-6.484-3.193c-0.159-0.082-0.285-0.174-0.379-0.271c-0.089-0.094-0.145-0.198-0.164-0.304
	c-0.022-0.103-0.004-0.207,0.051-0.301c0.055-0.097,0.146-0.193,0.275-0.267l1.873-1.135c0.124-0.082,0.28-0.137,0.452-0.176
	c0.168-0.039,0.356-0.063,0.547-0.063c0.188,0.006,0.384,0.024,0.57,0.063c0.186,0.039,0.364,0.099,0.522,0.176l6.473,3.146
	c0.164,0.081,0.293,0.172,0.39,0.269c0.099,0.1,0.156,0.203,0.185,0.31C200.185,194.102,200.177,194.209,200.123,194.308z
	 M189.762,189.262c-0.056,0.093-0.146,0.184-0.275,0.262l-1.872,1.127c-0.129,0.082-0.285,0.137-0.457,0.176
	c-0.173,0.04-0.357,0.059-0.547,0.059c-0.19,0-0.387-0.019-0.571-0.059c-0.188-0.042-0.363-0.097-0.522-0.18l-6.262-3.084
	c-0.152-0.078-0.273-0.164-0.359-0.257c-0.086-0.09-0.136-0.192-0.155-0.294c-0.018-0.098,0.003-0.199,0.062-0.292
	c0.061-0.089,0.151-0.18,0.279-0.252l1.882-1.099c0.127-0.077,0.283-0.133,0.452-0.167c0.169-0.039,0.353-0.06,0.54-0.06
	s0.374,0.021,0.558,0.06c0.18,0.039,0.354,0.088,0.508,0.167l6.25,3.038c0.158,0.078,0.28,0.164,0.373,0.257
	c0.094,0.094,0.149,0.198,0.168,0.297C189.829,189.062,189.812,189.164,189.762,189.262z M170.073,179.669
	c-0.06,0.089-0.153,0.177-0.282,0.246l-1.886,1.054c-0.132,0.074-0.284,0.13-0.454,0.164c-0.167,0.039-0.346,0.059-0.53,0.059
	c-0.188,0-0.371-0.02-0.55-0.059c-0.175-0.034-0.343-0.09-0.492-0.164l-5.852-2.88c-0.145-0.075-0.254-0.157-0.333-0.241
	c-0.076-0.086-0.116-0.182-0.128-0.274c-0.008-0.091,0.02-0.188,0.078-0.272c0.063-0.087,0.156-0.169,0.285-0.242l1.894-1.027
	c0.128-0.07,0.28-0.12,0.448-0.159c0.165-0.036,0.344-0.051,0.523-0.051c0.18,0,0.364,0.015,0.535,0.053
	c0.172,0.036,0.336,0.087,0.481,0.157l5.844,2.842c0.147,0.074,0.265,0.156,0.348,0.242c0.082,0.088,0.128,0.185,0.14,0.277
	C170.155,179.486,170.127,179.58,170.073,179.669z M142.949,166.326c0.004-0.016,0.012-0.032,0.014-0.046
	C142.961,166.295,142.953,166.31,142.949,166.326z M142.964,166.279c-0.003,0.016-0.011,0.03-0.014,0.046
	c-0.017,0.039-0.036,0.074-0.063,0.106c-0.062,0.081-0.159,0.155-0.288,0.223l-1.897,0.958c-0.129,0.065-0.281,0.111-0.446,0.146
	c-0.164,0.033-0.336,0.05-0.512,0.05c-0.176,0-0.351-0.017-0.515-0.05c-0.164-0.032-0.322-0.083-0.458-0.149l-5.297-2.612
	c-0.129-0.066-0.23-0.139-0.297-0.223c-0.066-0.082-0.097-0.163-0.097-0.25c0-0.082,0.035-0.168,0.097-0.246
	c0.064-0.077,0.165-0.152,0.293-0.218l1.9-0.929c0.129-0.066,0.279-0.112,0.442-0.144c0.159-0.03,0.331-0.047,0.502-0.047
	s0.343,0.016,0.507,0.052c0.16,0.031,0.313,0.082,0.445,0.145l5.294,2.573c0.135,0.066,0.241,0.14,0.308,0.222
	c0.065,0.083,0.102,0.168,0.104,0.25C142.984,166.213,142.972,166.244,142.964,166.279z M120.76,160.49
	c0.193,0.094,0.329,0.208,0.418,0.32c0.09,0.117,0.132,0.241,0.129,0.368c-0.007,0.121-0.066,0.246-0.168,0.362
	c-0.102,0.118-0.254,0.231-0.457,0.325l-4.384,2.077c-0.202,0.098-0.433,0.172-0.682,0.219c-0.246,0.051-0.507,0.073-0.762,0.073
	c-0.256,0-0.515-0.023-0.754-0.073c-0.238-0.05-0.459-0.121-0.652-0.219l-4.082-2.085c-0.187-0.089-0.324-0.203-0.406-0.319
	c-0.086-0.118-0.125-0.242-0.114-0.364c0.012-0.125,0.078-0.25,0.184-0.366c0.105-0.118,0.261-0.228,0.469-0.316l4.38-2.031
	c0.202-0.089,0.43-0.16,0.671-0.207c0.241-0.047,0.496-0.07,0.746-0.07c0.252,0,0.502,0.02,0.736,0.066
	c0.234,0.05,0.453,0.118,0.641,0.211L120.76,160.49z M104.148,170.059c0.242,0.05,0.467,0.125,0.659,0.23l4.178,2.221
	c0.197,0.101,0.34,0.224,0.425,0.353c0.09,0.123,0.132,0.261,0.118,0.398c-0.014,0.135-0.074,0.272-0.189,0.401
	c-0.112,0.127-0.277,0.246-0.491,0.354l-4.692,2.28c-0.224,0.107-0.466,0.187-0.731,0.24c-0.257,0.056-0.534,0.082-0.804,0.082
	c-0.269,0-0.543-0.03-0.788-0.082c-0.246-0.051-0.48-0.131-0.672-0.237l-4.173-2.289c-0.192-0.101-0.327-0.226-0.41-0.354
	c-0.082-0.125-0.118-0.263-0.098-0.398c0.02-0.137,0.086-0.269,0.21-0.402c0.118-0.124,0.285-0.241,0.504-0.348l4.688-2.219
	c0.214-0.099,0.456-0.177,0.714-0.228c0.25-0.052,0.52-0.078,0.785-0.078C103.645,169.981,103.903,170.008,104.148,170.059z
	 M96.95,177.449c0.223-0.107,0.472-0.189,0.733-0.241c0.263-0.056,0.54-0.082,0.813-0.082c0.27,0,0.542,0.026,0.787,0.082
	c0.246,0.053,0.481,0.133,0.672,0.241l4.255,2.345c0.2,0.108,0.343,0.24,0.43,0.371c0.09,0.134,0.126,0.279,0.108,0.422
	c-0.014,0.141-0.081,0.284-0.202,0.417c-0.117,0.138-0.29,0.261-0.516,0.373l-4.864,2.41c-0.229,0.112-0.48,0.199-0.75,0.249
	c-0.265,0.059-0.551,0.081-0.828,0.081c-0.278,0-0.555-0.025-0.81-0.081c-0.252-0.055-0.487-0.141-0.681-0.249l-4.249-2.413
	c-0.196-0.109-0.332-0.238-0.417-0.372c-0.082-0.136-0.113-0.281-0.089-0.42c0.019-0.146,0.093-0.285,0.218-0.422
	c0.125-0.133,0.302-0.258,0.527-0.371L96.95,177.449z M95.389,175.937c-0.122,0.129-0.293,0.25-0.516,0.36l-4.856,2.323
	c-0.227,0.105-0.481,0.187-0.743,0.241c-0.264,0.055-0.546,0.082-0.82,0.082c-0.269,0-0.542-0.027-0.784-0.082
	c-0.244-0.056-0.476-0.134-0.667-0.241l-4.091-2.327c-0.188-0.106-0.32-0.231-0.397-0.36c-0.083-0.132-0.104-0.269-0.083-0.404
	c0.023-0.139,0.103-0.278,0.23-0.407c0.129-0.13,0.306-0.247,0.53-0.355l4.844-2.256c0.224-0.103,0.468-0.181,0.731-0.234
	c0.261-0.051,0.534-0.078,0.8-0.078c0.267,0,0.532,0.027,0.773,0.078c0.242,0.054,0.466,0.129,0.652,0.234l4.104,2.259
	c0.191,0.105,0.327,0.227,0.41,0.355c0.082,0.129,0.115,0.271,0.093,0.406C95.58,175.668,95.509,175.809,95.389,175.937z
	 M82.786,178.112c0.188,0.104,0.321,0.235,0.404,0.363c0.082,0.133,0.101,0.277,0.082,0.417c-0.028,0.141-0.108,0.282-0.235,0.413
	c-0.129,0.135-0.309,0.259-0.543,0.369l-5.024,2.381c-0.234,0.109-0.495,0.196-0.766,0.245c-0.272,0.061-0.558,0.083-0.832,0.083
	c-0.278,0-0.549-0.026-0.796-0.083c-0.25-0.055-0.476-0.136-0.664-0.245l-4.033-2.381c-0.187-0.106-0.312-0.234-0.387-0.369
	c-0.077-0.131-0.092-0.276-0.062-0.416c0.03-0.142,0.117-0.281,0.253-0.414c0.132-0.134,0.321-0.259,0.554-0.369l5.012-2.313
	c0.23-0.102,0.484-0.184,0.746-0.238c0.266-0.055,0.542-0.082,0.811-0.082c0.266,0,0.535,0.027,0.773,0.082
	c0.241,0.055,0.465,0.133,0.652,0.238L82.786,178.112z M87.489,188.655c0.132-0.144,0.315-0.275,0.548-0.397l5.045-2.485
	c0.233-0.113,0.491-0.199,0.761-0.253c0.27-0.055,0.555-0.083,0.834-0.083c0.279,0,0.556,0.032,0.813,0.088
	c0.253,0.057,0.487,0.14,0.687,0.252l6.8,3.888c0.207,0.116,0.352,0.251,0.445,0.398c0.093,0.148,0.132,0.297,0.118,0.454
	c-0.016,0.15-0.087,0.307-0.211,0.454c-0.125,0.144-0.302,0.277-0.535,0.398l-5.055,2.586c-0.238,0.123-0.503,0.215-0.782,0.271
	c-0.278,0.062-0.57,0.09-0.862,0.09c-0.292,0-0.573-0.031-0.838-0.09c-0.266-0.061-0.502-0.148-0.711-0.271l-6.785-4.004
	c-0.199-0.116-0.34-0.248-0.42-0.398c-0.083-0.148-0.114-0.296-0.087-0.448C87.281,188.949,87.36,188.795,87.489,188.655z
	 M101.143,186.649c-0.202-0.113-0.347-0.242-0.437-0.387c-0.09-0.144-0.125-0.287-0.108-0.437c0.018-0.15,0.086-0.297,0.215-0.439
	c0.119-0.136,0.295-0.265,0.521-0.382l4.873-2.428c0.222-0.112,0.473-0.195,0.738-0.249c0.261-0.061,0.544-0.082,0.818-0.082
	c0.279,0,0.555,0.027,0.81,0.082c0.253,0.055,0.491,0.137,0.691,0.245l4.415,2.432c0.207,0.113,0.355,0.242,0.453,0.387
	c0.093,0.136,0.136,0.284,0.126,0.434c-0.009,0.152-0.075,0.3-0.193,0.441c-0.117,0.135-0.284,0.27-0.512,0.386l-4.876,2.506
	c-0.226,0.112-0.48,0.203-0.754,0.258c-0.269,0.059-0.559,0.084-0.838,0.084c-0.286,0-0.567-0.029-0.828-0.084
	c-0.259-0.06-0.5-0.146-0.706-0.262L101.143,186.649z M110.4,190.819c0.119-0.146,0.291-0.283,0.523-0.398l4.875-2.526
	c0.223-0.112,0.477-0.203,0.741-0.257c0.269-0.06,0.555-0.082,0.836-0.082c0.281-0.006,0.566,0.027,0.829,0.082
	c0.257,0.058,0.503,0.145,0.713,0.257l4.588,2.526c0.215,0.111,0.371,0.248,0.472,0.398c0.102,0.147,0.154,0.299,0.145,0.452
	c-0.004,0.156-0.066,0.308-0.179,0.456c-0.113,0.146-0.281,0.283-0.507,0.404l-4.879,2.601c-0.227,0.119-0.485,0.214-0.758,0.272
	c-0.278,0.063-0.57,0.09-0.859,0.09c-0.284,0-0.573-0.03-0.843-0.09c-0.269-0.059-0.516-0.153-0.73-0.272l-4.583-2.604
	c-0.21-0.117-0.363-0.254-0.457-0.403c-0.098-0.146-0.14-0.3-0.126-0.453C110.216,191.114,110.278,190.963,110.4,190.819z
	 M130.734,202.331c0.117-0.157,0.285-0.302,0.516-0.426l4.88-2.732c0.226-0.12,0.481-0.22,0.757-0.277
	c0.273-0.067,0.57-0.093,0.859-0.093c0.292,0,0.585,0.028,0.866,0.09c0.273,0.066,0.539,0.153,0.762,0.28l4.957,2.729
	c0.23,0.124,0.407,0.272,0.524,0.43c0.117,0.155,0.179,0.325,0.187,0.491c0.004,0.168-0.046,0.336-0.152,0.492
	c-0.11,0.16-0.273,0.31-0.494,0.435l-4.88,2.818c-0.231,0.129-0.491,0.23-0.773,0.293c-0.281,0.063-0.578,0.099-0.883,0.099
	c-0.304,0-0.6-0.036-0.886-0.099c-0.285-0.063-0.551-0.164-0.781-0.293l-4.957-2.818c-0.226-0.129-0.397-0.274-0.507-0.435
	c-0.11-0.154-0.169-0.324-0.164-0.492C130.566,202.656,130.621,202.486,130.734,202.331z M141.528,208.436
	c0.11-0.159,0.277-0.312,0.508-0.445l4.879-2.845c0.222-0.129,0.479-0.228,0.757-0.288c0.277-0.064,0.574-0.1,0.875-0.1
	c0.299,0,0.6,0.031,0.886,0.095c0.285,0.065,0.554,0.162,0.789,0.293l5.158,2.841c0.241,0.133,0.42,0.285,0.55,0.449
	c0.129,0.164,0.199,0.335,0.21,0.512c0.011,0.175-0.035,0.352-0.136,0.515c-0.101,0.163-0.265,0.315-0.488,0.45l-4.876,2.937
	c-0.226,0.138-0.491,0.241-0.772,0.306c-0.285,0.066-0.59,0.101-0.898,0.101c-0.306,0-0.612-0.035-0.907-0.101
	c-0.288-0.067-0.566-0.17-0.805-0.306l-5.161-2.937c-0.238-0.135-0.414-0.285-0.535-0.45c-0.121-0.163-0.183-0.34-0.188-0.51
	C141.364,208.777,141.419,208.601,141.528,208.436z M152.767,214.8c0.106-0.168,0.273-0.329,0.5-0.465l4.873-2.963
	c0.223-0.136,0.484-0.238,0.761-0.304c0.281-0.07,0.583-0.103,0.891-0.103s0.613,0.035,0.906,0.097
	c0.293,0.07,0.57,0.174,0.816,0.306l5.375,2.963c0.245,0.138,0.44,0.297,0.573,0.466c0.137,0.17,0.22,0.354,0.234,0.534
	c0.021,0.184-0.019,0.366-0.117,0.538c-0.099,0.173-0.257,0.332-0.48,0.468l-4.864,3.062c-0.227,0.142-0.492,0.244-0.781,0.32
	c-0.285,0.074-0.598,0.106-0.91,0.106c-0.312,0-0.629-0.036-0.929-0.106c-0.301-0.068-0.583-0.179-0.835-0.32l-5.383-3.058
	c-0.241-0.14-0.429-0.299-0.561-0.472c-0.132-0.172-0.2-0.354-0.211-0.535C152.611,215.15,152.661,214.973,152.767,214.8z
	 M164.482,221.434c0.101-0.181,0.266-0.345,0.491-0.49l4.86-3.088c0.221-0.141,0.483-0.245,0.769-0.316
	c0.28-0.073,0.589-0.105,0.896-0.105c0.312,0,0.63,0.034,0.929,0.101c0.301,0.067,0.591,0.175,0.848,0.317l5.603,3.087
	c0.262,0.144,0.463,0.311,0.609,0.488c0.144,0.175,0.233,0.367,0.258,0.558c0.025,0.189-0.01,0.38-0.103,0.559
	c-0.094,0.18-0.25,0.348-0.472,0.493l-4.845,3.192c-0.227,0.149-0.492,0.258-0.785,0.333c-0.288,0.076-0.604,0.113-0.924,0.113
	c-0.322,0-0.646-0.041-0.954-0.113c-0.308-0.075-0.604-0.184-0.865-0.333l-5.614-3.189c-0.257-0.144-0.453-0.314-0.594-0.49
	c-0.136-0.181-0.215-0.371-0.233-0.564C164.338,221.799,164.382,221.607,164.482,221.434z M176.708,228.354
	c0.095-0.188,0.258-0.361,0.485-0.508l4.84-3.225c0.219-0.148,0.484-0.256,0.77-0.332c0.287-0.074,0.601-0.108,0.917-0.108
	s0.64,0.033,0.951,0.104c0.31,0.077,0.609,0.184,0.874,0.332l5.85,3.22c0.273,0.153,0.49,0.324,0.647,0.511
	c0.155,0.188,0.249,0.386,0.285,0.583c0.038,0.198,0.011,0.398-0.083,0.582c-0.087,0.188-0.24,0.362-0.46,0.515l-4.822,3.336
	c-0.227,0.154-0.496,0.273-0.789,0.351c-0.296,0.077-0.615,0.112-0.942,0.112c-0.328,0-0.661-0.039-0.98-0.117
	c-0.321-0.077-0.629-0.197-0.901-0.353l-5.863-3.332c-0.266-0.153-0.477-0.33-0.624-0.512c-0.15-0.188-0.241-0.386-0.263-0.582
	C176.576,228.734,176.605,228.533,176.708,228.354z M189.474,235.58c0.089-0.195,0.246-0.378,0.472-0.535l4.818-3.365
	c0.218-0.155,0.483-0.27,0.771-0.348c0.292-0.079,0.61-0.112,0.935-0.116c0.324,0,0.656,0.037,0.975,0.112
	c0.325,0.078,0.634,0.191,0.91,0.349l6.105,3.359c0.28,0.161,0.51,0.339,0.678,0.536c0.165,0.195,0.275,0.402,0.316,0.608
	c0.048,0.207,0.032,0.411-0.054,0.608c-0.083,0.196-0.238,0.379-0.453,0.541l-4.795,3.483c-0.226,0.166-0.495,0.286-0.791,0.369
	c-0.302,0.082-0.629,0.119-0.961,0.119c-0.335-0.005-0.678-0.042-1.011-0.119c-0.333-0.082-0.648-0.208-0.935-0.369l-6.128-3.483
	c-0.278-0.161-0.501-0.345-0.659-0.541c-0.156-0.195-0.254-0.401-0.289-0.604C189.354,235.978,189.38,235.772,189.474,235.58z
	 M203.407,232.262c-0.282-0.156-0.508-0.333-0.673-0.523c-0.165-0.188-0.266-0.39-0.309-0.591c-0.043-0.197-0.022-0.397,0.063-0.585
	c0.081-0.188,0.235-0.363,0.445-0.514l4.617-3.27c0.21-0.147,0.465-0.257,0.746-0.335c0.284-0.073,0.593-0.109,0.913-0.109
	c0.319,0,0.649,0.041,0.965,0.109c0.321,0.078,0.623,0.188,0.905,0.335l6.142,3.263c0.289,0.156,0.519,0.333,0.695,0.52
	c0.171,0.188,0.284,0.391,0.333,0.586c0.055,0.203,0.044,0.406-0.03,0.591c-0.079,0.19-0.219,0.365-0.422,0.522l-4.59,3.376
	c-0.209,0.16-0.472,0.277-0.762,0.357c-0.292,0.082-0.612,0.116-0.94,0.116c-0.329,0-0.669-0.04-0.999-0.116
	c-0.329-0.082-0.645-0.199-0.934-0.357L203.407,232.262z M215.606,237.716c0.082-0.197,0.228-0.38,0.437-0.541l4.575-3.412
	c0.21-0.155,0.469-0.269,0.754-0.347c0.285-0.082,0.601-0.117,0.926-0.117c0.329,0,0.665,0.039,0.993,0.117s0.646,0.191,0.94,0.347
	l6.413,3.408c0.297,0.161,0.545,0.345,0.73,0.545c0.184,0.195,0.308,0.405,0.371,0.612c0.063,0.206,0.063,0.418-0.009,0.616
	c-0.068,0.197-0.206,0.382-0.41,0.543l-4.548,3.533c-0.211,0.164-0.472,0.284-0.766,0.368c-0.292,0.082-0.621,0.123-0.956,0.123
	s-0.683-0.041-1.023-0.123c-0.34-0.084-0.671-0.207-0.973-0.371l-6.445-3.53c-0.292-0.159-0.527-0.344-0.702-0.543
	c-0.176-0.198-0.288-0.407-0.343-0.616C215.515,238.121,215.528,237.915,215.606,237.716z M231.424,233.543
	c-0.202,0.155-0.457,0.272-0.738,0.351c-0.284,0.077-0.6,0.118-0.928,0.118c-0.329,0-0.669-0.041-0.995-0.114
	c-0.333-0.076-0.654-0.195-0.945-0.351l-6.316-3.335c-0.284-0.148-0.518-0.324-0.69-0.514c-0.177-0.19-0.287-0.388-0.343-0.584
	c-0.056-0.195-0.043-0.397,0.03-0.581c0.075-0.185,0.211-0.361,0.415-0.508l4.401-3.229c0.203-0.145,0.45-0.253,0.731-0.328
	c0.28-0.074,0.581-0.109,0.901-0.109c0.314,0,0.643,0.039,0.968,0.109c0.321,0.073,0.634,0.184,0.917,0.332l6.281,3.224
	c0.289,0.147,0.53,0.324,0.711,0.508c0.184,0.188,0.303,0.387,0.367,0.578c0.065,0.198,0.065,0.396,0,0.581
	c-0.067,0.183-0.196,0.363-0.395,0.516L231.424,233.543z M243.456,218.083c-0.124,0.093-0.282,0.164-0.462,0.214
	c-0.178,0.047-0.377,0.07-0.584,0.07s-0.423-0.023-0.633-0.07c-0.214-0.047-0.417-0.117-0.609-0.214l-7.504-3.698
	c-0.188-0.088-0.339-0.197-0.453-0.31c-0.112-0.11-0.191-0.236-0.229-0.353c-0.038-0.117-0.038-0.242,0.004-0.352
	c0.042-0.114,0.123-0.219,0.249-0.309l1.831-1.313c0.125-0.09,0.282-0.158,0.458-0.206c0.177-0.043,0.37-0.065,0.57-0.065
	c0.206,0,0.412,0.022,0.62,0.065c0.207,0.048,0.407,0.113,0.594,0.206l7.476,3.636c0.193,0.088,0.349,0.197,0.465,0.312
	c0.118,0.112,0.202,0.234,0.241,0.356c0.047,0.119,0.051,0.241,0.014,0.359c-0.039,0.114-0.119,0.223-0.242,0.315L243.456,218.083z
	 M245.067,219.312c0.039-0.111,0.117-0.226,0.241-0.315l1.813-1.367c0.125-0.095,0.281-0.163,0.46-0.214
	c0.176-0.049,0.375-0.07,0.578-0.07c0.21,0,0.422,0.021,0.632,0.07c0.217,0.051,0.423,0.117,0.614,0.214l7.766,3.775
	c0.198,0.094,0.362,0.205,0.487,0.324c0.13,0.118,0.22,0.242,0.267,0.372c0.055,0.125,0.061,0.253,0.026,0.374
	c-0.031,0.116-0.109,0.234-0.235,0.328l-1.791,1.409c-0.124,0.095-0.283,0.168-0.462,0.22c-0.183,0.051-0.384,0.073-0.597,0.073
	c-0.21,0-0.429-0.022-0.651-0.073c-0.218-0.052-0.431-0.119-0.627-0.222l-7.794-3.837c-0.195-0.096-0.352-0.207-0.471-0.326
	c-0.121-0.117-0.203-0.242-0.245-0.367C245.033,219.553,245.029,219.43,245.067,219.312z M109.104,152.433
	c0.07-0.073,0.171-0.141,0.299-0.199l1.893-0.848c0.132-0.063,0.279-0.102,0.438-0.129c0.157-0.031,0.32-0.046,0.484-0.046
	c0.165,0,0.329,0.016,0.481,0.046c0.148,0.031,0.289,0.073,0.411,0.132l4.828,2.346c0.122,0.063,0.215,0.129,0.27,0.203
	c0.063,0.077,0.087,0.153,0.083,0.229c-0.008,0.082-0.043,0.156-0.109,0.234c-0.069,0.074-0.168,0.141-0.297,0.204l-1.898,0.871
	c-0.129,0.063-0.281,0.105-0.438,0.132c-0.159,0.032-0.327,0.047-0.491,0.047c-0.168,0-0.336-0.017-0.488-0.047
	c-0.157-0.027-0.297-0.074-0.417-0.132l-4.83-2.382c-0.12-0.059-0.21-0.125-0.26-0.198c-0.059-0.073-0.082-0.153-0.074-0.229
	C108.997,152.581,109.036,152.507,109.104,152.433z M100.336,156.388c0.109-0.109,0.265-0.219,0.468-0.305l4.375-1.959
	c0.203-0.086,0.426-0.152,0.669-0.2c0.241-0.046,0.491-0.069,0.737-0.069s0.497,0.023,0.726,0.069
	c0.231,0.047,0.441,0.109,0.622,0.203l3.951,1.96c0.184,0.089,0.32,0.195,0.406,0.309c0.083,0.109,0.121,0.234,0.108,0.352
	c-0.012,0.121-0.069,0.241-0.172,0.354c-0.106,0.109-0.262,0.219-0.459,0.308l-4.38,2.011c-0.202,0.095-0.434,0.166-0.679,0.211
	c-0.246,0.046-0.5,0.07-0.754,0.07c-0.25,0-0.503-0.024-0.733-0.07c-0.238-0.05-0.449-0.116-0.631-0.211l-3.947-2.014
	c-0.18-0.089-0.308-0.199-0.394-0.312c-0.083-0.109-0.109-0.234-0.094-0.352C100.163,156.62,100.226,156.501,100.336,156.388z
	 M91.197,160.479c0.117-0.118,0.281-0.228,0.492-0.321l4.517-2.022c0.206-0.09,0.438-0.161,0.682-0.207
	c0.246-0.046,0.5-0.07,0.754-0.07c0.25,0,0.499,0.024,0.733,0.074c0.23,0.045,0.445,0.112,0.625,0.206l8.397,4.31
	c0.182,0.093,0.32,0.207,0.406,0.324c0.082,0.117,0.12,0.242,0.106,0.37c-0.014,0.125-0.075,0.25-0.185,0.373
	c-0.109,0.122-0.265,0.229-0.476,0.328l-4.529,2.112c-0.211,0.094-0.449,0.172-0.703,0.222c-0.246,0.052-0.516,0.075-0.774,0.075
	c-0.261,0-0.519-0.023-0.756-0.075c-0.237-0.05-0.457-0.12-0.645-0.222l-8.381-4.427c-0.179-0.094-0.309-0.207-0.391-0.325
	c-0.078-0.118-0.102-0.241-0.082-0.368C91.009,160.717,91.078,160.592,91.197,160.479z M81.749,164.703
	c0.121-0.118,0.292-0.23,0.511-0.328l4.665-2.09c0.215-0.093,0.452-0.163,0.707-0.214c0.246-0.048,0.508-0.071,0.766-0.071
	c0.253,0,0.506,0.023,0.741,0.075c0.235,0.047,0.444,0.118,0.625,0.214l10.633,5.653c0.188,0.098,0.32,0.215,0.406,0.335
	c0.083,0.127,0.118,0.254,0.101,0.392c-0.015,0.127-0.083,0.26-0.2,0.383c-0.118,0.127-0.277,0.243-0.492,0.341l-4.688,2.207
	c-0.219,0.102-0.461,0.18-0.723,0.23c-0.261,0.05-0.53,0.079-0.792,0.079c-0.265,0-0.531-0.028-0.773-0.082
	c-0.241-0.052-0.465-0.126-0.652-0.232l-10.61-5.804c-0.179-0.097-0.304-0.214-0.382-0.332c-0.074-0.122-0.097-0.25-0.074-0.379
	C81.55,164.948,81.624,164.823,81.749,164.703z M71.74,169.46c0.031-0.133,0.109-0.26,0.243-0.39c0.128-0.121,0.304-0.24,0.53-0.34
	l4.824-2.159c0.223-0.097,0.468-0.171,0.727-0.222c0.256-0.051,0.522-0.078,0.783-0.074c0.259,0,0.52,0.023,0.751,0.074
	c0.238,0.051,0.452,0.121,0.632,0.222l6.125,3.378c0.184,0.098,0.313,0.22,0.394,0.344c0.083,0.125,0.105,0.256,0.083,0.394
	c-0.024,0.135-0.093,0.267-0.218,0.394c-0.125,0.125-0.296,0.242-0.52,0.347l-4.845,2.243c-0.227,0.1-0.477,0.179-0.733,0.233
	c-0.261,0.05-0.541,0.077-0.809,0.077c-0.265,0-0.53-0.027-0.773-0.081c-0.241-0.055-0.46-0.13-0.644-0.233l-6.109-3.476
	c-0.175-0.098-0.3-0.22-0.373-0.345C71.734,169.721,71.708,169.594,71.74,169.46z M61.617,173.993
	c0.04-0.137,0.129-0.273,0.265-0.401c0.137-0.129,0.32-0.249,0.559-0.356l4.989-2.231c0.23-0.098,0.48-0.176,0.741-0.231
	c0.263-0.051,0.535-0.076,0.798-0.076c0.266,0,0.523,0.025,0.761,0.08c0.238,0.052,0.448,0.126,0.628,0.231l3.915,2.233
	c0.184,0.102,0.309,0.227,0.384,0.352c0.077,0.128,0.092,0.266,0.068,0.4c-0.032,0.137-0.113,0.274-0.241,0.407
	c-0.129,0.134-0.312,0.244-0.54,0.354l-5.008,2.297c-0.235,0.105-0.492,0.188-0.761,0.24c-0.271,0.056-0.548,0.084-0.82,0.084
	c-0.269,0-0.54-0.028-0.777-0.084c-0.242-0.049-0.461-0.131-0.645-0.24l-3.894-2.297c-0.179-0.106-0.3-0.229-0.37-0.358
	C61.602,174.268,61.586,174.13,61.617,173.993z M151.57,238.765c-0.197,0.328-0.498,0.64-0.907,0.906l-41.791,27.354
	c-0.481,0.316-1.028,0.554-1.605,0.71c-0.577,0.159-1.19,0.243-1.792,0.243c-0.602,0-1.198-0.084-1.753-0.238
	c-0.554-0.157-1.057-0.396-1.495-0.708l-53.084-38.616c-0.346-0.249-0.578-0.542-0.703-0.853c-0.124-0.308-0.141-0.631-0.054-0.959
	c0.082-0.324,0.273-0.648,0.559-0.952c0.284-0.306,0.664-0.586,1.136-0.835l41.243-21.549c0.406-0.22,0.865-0.378,1.346-0.48
	c0.48-0.106,0.985-0.159,1.476-0.159c0.496,0,0.984,0.054,1.434,0.159c0.452,0.106,0.871,0.265,1.222,0.48l53.661,32.563
	c0.434,0.258,0.762,0.565,0.992,0.89c0.226,0.324,0.351,0.673,0.37,1.021C151.846,238.086,151.759,238.438,151.57,238.765z
	 M154.719,228.203c-0.296,0.077-0.616,0.112-0.938,0.112c-0.324,0-0.648-0.04-0.954-0.112c-0.308-0.076-0.596-0.189-0.854-0.337
	l-52.139-30.795c-0.207-0.121-0.358-0.262-0.448-0.417c-0.089-0.147-0.129-0.307-0.11-0.466c0.021-0.16,0.094-0.321,0.227-0.473
	c0.124-0.149,0.308-0.289,0.546-0.409l5.061-2.613c0.229-0.117,0.491-0.209,0.764-0.265c0.273-0.063,0.567-0.09,0.851-0.09
	c0.284,0,0.57,0.03,0.837,0.09c0.261,0.059,0.506,0.147,0.718,0.265l52.144,29.837c0.25,0.145,0.448,0.313,0.582,0.492
	c0.136,0.18,0.214,0.371,0.229,0.562c0.02,0.192-0.026,0.382-0.132,0.563c-0.103,0.185-0.271,0.351-0.503,0.499l-5.06,3.227
	C155.293,228.014,155.016,228.127,154.719,228.203z M171.227,237.07c-0.237,0.16-0.515,0.279-0.819,0.365
	c-0.301,0.076-0.627,0.114-0.96,0.114c-0.331,0-0.667-0.038-0.987-0.114c-0.316-0.084-0.621-0.201-0.892-0.36l-8.923-5.271
	c-0.257-0.152-0.46-0.331-0.598-0.519c-0.136-0.19-0.218-0.394-0.23-0.589c-0.016-0.205,0.031-0.403,0.142-0.587
	c0.105-0.192,0.281-0.368,0.519-0.52l5.055-3.26c0.234-0.148,0.503-0.258,0.796-0.332c0.293-0.078,0.609-0.108,0.93-0.108
	c0.319,0,0.639,0.039,0.946,0.108c0.309,0.078,0.602,0.188,0.864,0.337l8.903,5.093c0.267,0.152,0.477,0.331,0.626,0.52
	c0.147,0.191,0.237,0.394,0.261,0.593c0.022,0.199-0.008,0.407-0.106,0.593c-0.097,0.188-0.263,0.371-0.492,0.527L171.227,237.07z
	 M182.569,244.586c-0.307,0.08-0.637,0.124-0.977,0.124c-0.336,0-0.684-0.039-1.012-0.12c-0.329-0.082-0.644-0.206-0.921-0.375
	l-6.019-3.552c-0.275-0.164-0.489-0.352-0.636-0.552c-0.154-0.197-0.242-0.41-0.266-0.619c-0.024-0.211,0.015-0.422,0.116-0.622
	c0.103-0.198,0.273-0.385,0.507-0.547l5.04-3.435c0.23-0.156,0.499-0.273,0.801-0.351c0.296-0.083,0.621-0.119,0.948-0.119
	s0.659,0.045,0.98,0.119c0.319,0.082,0.624,0.198,0.897,0.354l5.998,3.431c0.279,0.162,0.5,0.345,0.661,0.545
	c0.159,0.199,0.254,0.407,0.289,0.617c0.038,0.214,0.007,0.422-0.087,0.622c-0.093,0.199-0.253,0.384-0.483,0.55l-5.017,3.555
	C183.154,244.375,182.877,244.5,182.569,244.586z M195.66,252.746c-0.204,0.062-0.433,0.085-0.663,0.089
	c-0.232,0-0.467-0.031-0.694-0.086c-0.229-0.059-0.444-0.145-0.644-0.257l-7.694-4.545c-0.192-0.112-0.344-0.24-0.448-0.386
	c-0.107-0.136-0.176-0.284-0.197-0.435c-0.022-0.147-0.004-0.291,0.066-0.428c0.065-0.141,0.176-0.271,0.331-0.384l2.242-1.605
	c0.155-0.111,0.343-0.197,0.547-0.247c0.202-0.059,0.421-0.082,0.648-0.082c0.229,0,0.457,0.031,0.678,0.082
	c0.225,0.058,0.434,0.14,0.627,0.249l7.677,4.458c0.201,0.114,0.356,0.245,0.467,0.388c0.111,0.14,0.188,0.287,0.214,0.437
	c0.031,0.149,0.017,0.3-0.047,0.441c-0.063,0.137-0.167,0.269-0.325,0.386l-2.233,1.667
	C196.054,252.6,195.868,252.687,195.66,252.746z M208.607,259.905c-0.316,0.089-0.661,0.136-1.013,0.136
	c-0.355,0-0.718-0.047-1.064-0.136c-0.353-0.088-0.69-0.228-0.995-0.407l-6.568-3.876c-0.301-0.181-0.542-0.387-0.713-0.602
	c-0.174-0.213-0.282-0.444-0.325-0.678c-0.044-0.23-0.02-0.458,0.078-0.676c0.089-0.215,0.253-0.414,0.487-0.59l4.981-3.748
	c0.231-0.167,0.504-0.297,0.81-0.383c0.305-0.086,0.636-0.125,0.98-0.125c0.344,0,0.693,0.043,1.034,0.125
	c0.339,0.086,0.672,0.216,0.968,0.385l6.539,3.741c0.305,0.175,0.551,0.378,0.731,0.589c0.183,0.216,0.305,0.445,0.357,0.678
	c0.052,0.229,0.04,0.456-0.047,0.675c-0.081,0.22-0.232,0.418-0.456,0.598l-4.958,3.88
	C209.199,259.674,208.918,259.811,208.607,259.905z M224.562,265.443c-0.056,0.152-0.153,0.295-0.306,0.416l-2.198,1.819
	c-0.153,0.125-0.343,0.223-0.554,0.281c-0.215,0.067-0.445,0.098-0.688,0.098c-0.24,0-0.491-0.03-0.732-0.095
	c-0.242-0.062-0.476-0.153-0.69-0.279l-8.379-4.945c-0.206-0.122-0.373-0.263-0.496-0.416c-0.121-0.152-0.198-0.313-0.233-0.473
	c-0.035-0.158-0.024-0.32,0.035-0.466c0.063-0.149,0.162-0.294,0.32-0.411l2.218-1.748c0.15-0.123,0.334-0.213,0.547-0.271
	c0.206-0.063,0.433-0.09,0.666-0.09c0.24,0,0.477,0.031,0.712,0.087c0.238,0.062,0.459,0.151,0.673,0.274l8.35,4.844
	c0.214,0.124,0.385,0.265,0.516,0.415c0.129,0.153,0.218,0.317,0.256,0.478C224.616,265.127,224.612,265.287,224.562,265.443z
	 M237.346,254.455c-0.068,0.219-0.211,0.417-0.421,0.598l-4.697,3.866c-0.218,0.181-0.491,0.314-0.798,0.408
	c-0.303,0.094-0.643,0.138-0.997,0.138c-0.352,0-0.719-0.046-1.07-0.138c-0.356-0.085-0.702-0.226-1.02-0.408l-24.95-14.173
	c-0.286-0.163-0.521-0.36-0.694-0.562c-0.173-0.206-0.276-0.417-0.323-0.637c-0.048-0.219-0.023-0.429,0.062-0.635
	c0.087-0.204,0.244-0.392,0.462-0.555l4.79-3.519c0.218-0.158,0.483-0.28,0.779-0.362c0.294-0.08,0.618-0.117,0.95-0.117
	s0.674,0.039,1.006,0.117c0.332,0.077,0.652,0.203,0.94,0.358l24.816,13.68c0.317,0.176,0.572,0.374,0.765,0.59
	c0.199,0.213,0.329,0.44,0.398,0.672C237.416,254.006,237.416,254.241,237.346,254.455z M256.708,240.257
	c-0.054,0.199-0.176,0.39-0.374,0.55l-13.33,11.044c-0.21,0.172-0.472,0.299-0.769,0.39c-0.297,0.09-0.628,0.129-0.973,0.129
	c-0.347,0-0.704-0.043-1.058-0.129c-0.351-0.086-0.695-0.22-1.013-0.39l-7.814-4.279c-0.304-0.168-0.558-0.363-0.74-0.57
	c-0.192-0.21-0.317-0.425-0.379-0.647c-0.063-0.219-0.06-0.438,0.013-0.646c0.072-0.201,0.209-0.397,0.42-0.562l7.656-6.044
	l-1.715-0.904c-0.301-0.16-0.551-0.344-0.734-0.543c-0.187-0.196-0.312-0.406-0.377-0.609c-0.063-0.209-0.063-0.413,0.004-0.609
	c0.068-0.194,0.202-0.377,0.407-0.539l4.355-3.381c0.196-0.155,0.445-0.268,0.726-0.348c0.281-0.077,0.594-0.117,0.917-0.117
	c0.324,0,0.664,0.042,0.996,0.117c0.331,0.074,0.656,0.192,0.956,0.348l3.896,1.998l1.608,0.827l6.098,3.131
	c0.309,0.161,0.571,0.347,0.766,0.544c0.199,0.199,0.34,0.406,0.415,0.622C256.748,239.85,256.763,240.061,256.708,240.257z
	 M265.16,233.264c-0.05,0.193-0.167,0.372-0.354,0.527l-4.12,3.409c-0.191,0.159-0.437,0.276-0.718,0.358s-0.597,0.117-0.926,0.117
	c-0.331,0-0.675-0.039-1.019-0.117c-0.339-0.083-0.678-0.199-0.985-0.355l-13.943-7.118c-0.296-0.151-0.543-0.326-0.729-0.513
	c-0.187-0.188-0.313-0.386-0.383-0.578c-0.065-0.199-0.074-0.399-0.013-0.583c0.063-0.183,0.188-0.359,0.383-0.506l4.188-3.225
	c0.192-0.146,0.429-0.253,0.708-0.329c0.27-0.076,0.573-0.108,0.894-0.108c0.315,0,0.647,0.034,0.976,0.108
	c0.326,0.075,0.644,0.185,0.942,0.329l13.854,6.878c0.308,0.153,0.57,0.331,0.766,0.523c0.198,0.187,0.339,0.39,0.416,0.59
	C265.188,232.874,265.207,233.077,265.16,233.264z M270.883,228.771c-0.03,0.121-0.101,0.242-0.225,0.341l-1.77,1.466
	c-0.12,0.099-0.281,0.177-0.46,0.231c-0.184,0.051-0.389,0.079-0.605,0.079c-0.215,0-0.439-0.028-0.669-0.079
	c-0.221-0.055-0.439-0.129-0.646-0.231l-8.104-3.992c-0.203-0.099-0.369-0.216-0.493-0.337c-0.129-0.118-0.219-0.249-0.271-0.382
	c-0.049-0.127-0.057-0.258-0.021-0.379c0.034-0.121,0.109-0.237,0.233-0.334l1.789-1.415c0.123-0.097,0.28-0.17,0.459-0.222
	c0.18-0.051,0.383-0.073,0.593-0.073c0.212,0,0.43,0.026,0.649,0.073c0.219,0.052,0.429,0.121,0.628,0.219l8.076,3.927
	c0.203,0.098,0.375,0.215,0.508,0.336c0.132,0.125,0.23,0.252,0.285,0.385C270.9,228.519,270.916,228.646,270.883,228.771z
	 M291.043,229.393c-0.031,0.019-0.063,0.025-0.089,0.045c0.08-0.045,0.163-0.097,0.24-0.147
	C291.144,229.325,291.098,229.36,291.043,229.393z M292.619,228.147c-0.05,0.056-0.105,0.092-0.16,0.144
	c0.067-0.065,0.134-0.117,0.197-0.186C292.642,228.121,292.633,228.135,292.619,228.147z M293.888,226.417
	c-0.027,0.051-0.063,0.086-0.085,0.137c0.058-0.099,0.111-0.206,0.168-0.308C293.944,226.301,293.92,226.367,293.888,226.417z
	 M283.884,214.866L124.706,142.9l32.529-132.893l173.547,32.882L283.884,214.866z M343.026,32.156
	c0.172,0.164,0.34,0.34,0.495,0.524c0,0.008,0.003,0.008,0.01,0.012C343.37,32.504,343.201,32.328,343.026,32.156z M344.856,34.944
	c0.02,0.043,0.038,0.082,0.059,0.129c0.047,0.129,0.086,0.261,0.125,0.397C344.981,35.288,344.927,35.112,344.856,34.944z
	 M345.469,38.145c-0.002-0.175-0.01-0.351-0.022-0.527c0.007,0.122,0.021,0.239,0.022,0.359
	C345.473,38.032,345.469,38.091,345.469,38.145z"/>
</svg>
