<?xml version="1.0" encoding="utf-8"?>
<!-- Generator: Adobe Illustrator 13.0.0, SVG Export Plug-In . SVG Version: 6.00 Build 14948)  -->
<!DOCTYPE svg PUBLIC "-//W3C//DTD SVG 1.1//EN" "http://www.w3.org/Graphics/SVG/1.1/DTD/svg11.dtd">
<svg version="1.1" id="Layer_1" xmlns="http://www.w3.org/2000/svg" xmlns:xlink="http://www.w3.org/1999/xlink" x="0px" y="0px"
	 width="342.957px" height="342.957px" viewBox="0 0 342.957 342.957" enable-background="new 0 0 342.957 342.957"
	 xml:space="preserve">
<path d="M324.454,306.764l-91.163-91.163c-3.351-3.349-7.814-4.837-12.278-4.837l-14.885-14.884
	c17.86-20.093,29.023-46.512,29.023-75.907c0-62.513-50.978-113.49-113.489-113.49C59.521,6.855,8.545,57.833,8.545,120.344
	c0,62.513,50.977,113.861,113.489,113.861c25.676,0,49.489-8.557,68.465-23.069l14.884,14.884
	c-0.372,4.838,1.116,9.675,4.838,13.396l91.162,91.162c6.325,6.325,17.117,6.325,23.443,0
	C331.152,324.252,331.15,313.09,324.454,306.764z M122.033,208.53c-48.744,0-88.187-39.442-88.187-88.186
	s39.442-88.187,88.187-88.187c48.745,0,88.188,39.443,88.188,88.187C210.22,169.089,170.778,208.53,122.033,208.53z"/>
<path d="M81.847,95.785c0,24.931,19.72,32,35.349,38.326h0.373c13.396,5.209,15.628,6.698,15.628,10.418
	c0,5.582-4.466,8.558-13.023,8.558c-6.326,0-13.023-1.86-19.722-5.953l-0.744-0.372l-0.745-0.372
	c-0.744-0.373-1.86-0.745-3.721-0.745c-3.349,0-6.697,2.233-8.557,5.209v0.373v0.372l-3.722,7.442l-0.372,0.372v0.372
	c-1.489,4.465,0,9.303,3.721,11.535c6.326,4.465,14.14,7.442,23.07,8.93v4.466v7.44h7.441h11.163h7.442v-7.44v-5.582
	c16.745-4.465,27.163-17.488,26.419-35.721c0-23.814-18.606-30.512-35.351-36.465l-1.86-0.744
	c-11.907-4.465-14.14-5.954-14.14-11.163c0-1.86,0-7.07,11.162-7.07c5.954,0,11.536,1.861,18.232,5.582
	c1.489,1.116,3.349,1.488,5.21,1.488c3.721,0,7.441-2.232,8.93-5.581l3.349-7.07c2.233-4.465,0.746-9.674-3.349-12.28
	c-5.581-3.721-11.907-6.325-18.977-7.813v-5.954v-7.441h-7.442h-10.789h-7.441v7.441v5.954
	C92.638,66.018,81.847,78.297,81.847,95.785z"/>
<polygon points="19.707,334.299 5.567,322.021 43.521,277.74 75.522,299.694 105.661,261.74 143.243,279.229 181.197,234.577 
	195.336,246.856 148.08,302.298 110.87,284.81 79.242,324.997 46.87,302.298 "/>
<polygon points="199.802,288.159 181.197,288.159 181.197,252.81 145.847,252.81 145.847,234.205 199.802,234.205 "/>
<rect x="250.035" y="62.297" width="43.534" height="18.604"/>
<rect x="250.035" y="120.716" width="86.698" height="18.604"/>
<rect x="250.035" y="93.553" width="86.698" height="18.605"/>
<rect x="250.035" y="147.879" width="86.698" height="18.604"/>
</svg>
