<?xml version="1.0" encoding="utf-8"?>
<!-- Generator: Adobe Illustrator 13.0.0, SVG Export Plug-In . SVG Version: 6.00 Build 14948)  -->
<!DOCTYPE svg PUBLIC "-//W3C//DTD SVG 1.1//EN" "http://www.w3.org/Graphics/SVG/1.1/DTD/svg11.dtd">
<svg version="1.1" id="Layer_1" xmlns="http://www.w3.org/2000/svg" xmlns:xlink="http://www.w3.org/1999/xlink" x="0px" y="0px"
	 width="612px" height="792px" viewBox="0 0 612 792" enable-background="new 0 0 612 792" xml:space="preserve">
<g>
	<circle cx="306" cy="273.52" r="69.768"/>
	<circle cx="462.672" cy="289.432" r="52.02"/>
	<path d="M566.1,464.464c-10.404-65.483-44.676-104.652-103.428-104.652c-22.645,0-41.004,5.508-56.305,16.524
		c1.836,1.836,3.672,3.672,6.12,5.508c25.092,26.316,42.229,64.26,50.185,112.608c0,1.836,0.611,3.672,0.611,4.896
		C520.199,499.96,570.384,490.168,566.1,464.464z"/>
	<circle cx="149.328" cy="289.432" r="52.02"/>
	<path d="M200.124,381.844c1.836-1.836,3.672-3.672,5.508-5.508c-15.3-11.016-34.272-16.524-56.304-16.524
		c-58.141,0-92.412,38.556-103.429,104.652c-4.283,25.704,46.513,35.496,103.429,35.496c0-1.836,0-3.672,0.611-4.896
		C157.284,446.716,174.42,408.771,200.124,381.844z"/>
	<path d="M306,545.248c-76.5,0-143.82-13.464-138.313-47.124C182.376,409.996,228.276,358.588,306,358.588
		c77.724,0,123.623,52.02,138.312,139.536C449.82,531.784,382.5,545.248,306,545.248z"/>
</g>
</svg>
