<?xml version="1.0" encoding="utf-8"?>
<!-- Generator: Adobe Illustrator 13.0.0, SVG Export Plug-In . SVG Version: 6.00 Build 14948)  -->
<!DOCTYPE svg PUBLIC "-//W3C//DTD SVG 1.1//EN" "http://www.w3.org/Graphics/SVG/1.1/DTD/svg11.dtd">
<svg version="1.1" id="Layer_1" xmlns="http://www.w3.org/2000/svg" xmlns:xlink="http://www.w3.org/1999/xlink" x="0px" y="0px"
	 width="342.957px" height="342.957px" viewBox="0 0 342.957 342.957" enable-background="new 0 0 342.957 342.957"
	 xml:space="preserve">
<g>
	<g>
		<path d="M164.826,165.332V92.243H107.1c-5.11,22.106-8.194,46.955-8.646,73.089H164.826z"/>
	</g>
	<g>
		<path d="M85.167,178.622H12.177c1.099,26.544,8.721,51.415,21.287,73.091h59.817C88.431,229.56,85.583,204.865,85.167,178.622z"/>
	</g>
	<g>
		<path d="M330.747,178.591c-1.062,26.577-8.704,51.429-21.263,73.089h-59.802c4.852-22.125,7.71-46.843,8.106-73.089H330.747z"/>
	</g>
	<g>
		<path d="M93.27,92.21c-4.85,22.193-7.708,46.911-8.106,73.09H12.206c1.063-26.511,8.705-51.362,21.264-73.09H93.27z"/>
	</g>
	<g>
		<path d="M178.115,12.645v66.309h54.314c-7.863-27.806-19.059-50.219-32.134-63.817C193.055,13.807,185.656,12.955,178.115,12.645z
			"/>
	</g>
	<g>
		<path d="M178.115,178.622v73.091h57.729c5.109-22.108,8.193-46.956,8.645-73.091H178.115z"/>
	</g>
	<g>
		<path d="M121.51,323.442c-32.226-10.698-59.934-31.429-79.469-58.474h54.485C102.773,288.226,111.277,308.16,121.51,323.442z"/>
	</g>
	<g>
		<path d="M96.527,78.954c6.229-23.246,14.757-43.148,24.975-58.407C89.254,31.224,61.545,51.925,42.064,78.954H96.527z"/>
	</g>
	<g>
		<path d="M246.419,265.002c-6.23,23.249-14.758,43.152-24.979,58.412c32.248-10.677,59.959-31.378,79.441-58.412H246.419z"/>
	</g>
	<g>
		<path d="M164.826,331.313v-66.311h-54.314c7.863,27.805,19.057,50.216,32.129,63.816
			C149.882,330.147,157.283,331.001,164.826,331.313z"/>
	</g>
	<g>
		<path d="M142.64,15.133c7.242-1.329,14.618-2.192,22.193-2.458v66.247h-54.287C118.387,51.147,129.55,28.755,142.64,15.133z"/>
	</g>
	<g>
		<path d="M98.453,178.591h66.38v73.089h-57.742C101.975,229.621,98.918,204.771,98.453,178.591z"/>
	</g>
	<g>
		<path d="M244.501,165.301h-66.38v-73.09h57.742C240.978,114.337,244.037,139.188,244.501,165.301z"/>
	</g>
	<g>
		<path d="M178.121,264.969h54.286c-7.84,27.843-19.004,50.233-32.093,63.854c-7.243,1.329-14.685,2.194-22.193,2.46V264.969z"/>
	</g>
	<g>
		<path d="M249.66,92.243c4.853,22.154,7.701,46.848,8.117,73.089h73.003c-1.092-26.539-8.71-51.413-21.28-73.089H249.66z"/>
	</g>
	<g>
		<path d="M300.914,78.922h-54.486c-6.246-23.19-14.749-43.124-24.983-58.407C253.67,31.214,281.379,51.945,300.914,78.922z"/>
	</g>
</g>
</svg>
